<svg version="1.1" id="Layer_1" xmlns="http://www.w3.org/2000/svg" xmlns:xlink="http://www.w3.org/1999/xlink" x="0px" y="0px"
	 width="100%" viewBox="0 0 1915 800" enable-background="new 0 0 1915 800" xml:space="preserve">
<path fill="#FFFFFF" opacity="1.000000" stroke="none" 
	d="
M1219.000000,801.000000 
	C812.666687,801.000000 406.833344,801.000000 1.000000,801.000000 
	C1.000000,534.333313 1.000000,267.666656 1.000000,1.000000 
	C639.333313,1.000000 1277.666626,1.000000 1916.000000,1.000000 
	C1916.000000,267.666656 1916.000000,534.333313 1916.000000,801.000000 
	C1683.833374,801.000000 1451.666626,801.000000 1219.000000,801.000000 
M1399.970947,348.375305 
	C1399.722412,348.053284 1399.473877,347.731262 1399.353638,347.225189 
	C1399.353638,347.225189 1399.248535,347.026978 1399.211060,346.320770 
	C1398.872681,345.718719 1398.534302,345.116669 1398.270630,344.244507 
	C1398.270630,344.244507 1398.104614,344.018707 1398.120728,343.340332 
	C1397.751099,342.553558 1397.381470,341.766785 1396.997314,340.997681 
	C1396.997314,340.997681 1397.018921,340.996002 1397.038940,340.357849 
	C1396.732544,339.816193 1396.426147,339.274536 1396.136353,338.344238 
	C1396.136353,338.344238 1395.960327,337.997314 1395.998047,337.296204 
	C1395.393311,336.045868 1394.788452,334.795532 1394.165649,332.801392 
	C1386.666870,312.182678 1379.206299,291.549713 1371.568237,270.982758 
	C1371.136597,269.820343 1368.823730,268.222656 1368.121948,268.526398 
	C1366.580688,269.193481 1364.920654,270.730164 1364.337646,272.295044 
	C1355.457642,296.129425 1346.816040,320.052643 1337.937744,343.887756 
	C1335.842407,349.513000 1335.939697,357.369385 1325.409180,356.152405 
	C1330.522949,359.393860 1345.041260,359.201080 1348.022217,356.318878 
	C1345.081055,355.969513 1342.450928,355.657104 1339.080933,355.256805 
	C1342.234741,346.543121 1345.057495,338.416382 1348.211182,330.420197 
	C1348.635864,329.343262 1350.700562,328.364288 1352.052124,328.299194 
	C1357.198975,328.051453 1362.426025,328.699982 1367.509521,328.081512 
	C1375.847412,327.067047 1382.161133,328.540771 1383.876343,338.712402 
	C1384.184937,339.298706 1384.493652,339.885010 1384.736694,340.753265 
	C1384.736694,340.753265 1384.911377,340.984131 1384.905762,341.651825 
	C1385.217041,342.224548 1385.528320,342.797241 1385.809814,343.707275 
	C1385.809814,343.707275 1385.986694,343.996033 1385.959473,344.709412 
	C1386.570801,345.981689 1387.182129,347.253998 1387.694458,348.766815 
	C1387.694458,348.766815 1387.850952,348.974609 1387.853760,349.674622 
	C1388.165405,350.281616 1388.477051,350.888611 1388.715942,351.761902 
	C1388.715942,351.761902 1388.890137,351.976013 1388.904541,352.822113 
	C1389.577515,355.525299 1387.994995,355.812195 1385.878906,355.830139 
	C1384.114258,355.845154 1382.352417,356.184784 1379.474121,356.504517 
	C1384.571899,359.410034 1407.046265,359.202820 1410.185181,356.634521 
	C1407.334961,355.921478 1404.757812,355.276703 1402.146851,354.278900 
	C1402.146851,354.278900 1401.940186,353.990753 1401.897827,353.404663 
	C1401.659424,353.102539 1401.421021,352.800385 1401.260620,352.232910 
	C1401.260620,352.232910 1401.091187,352.014374 1401.100586,351.345184 
	C1400.733765,350.564331 1400.366821,349.783508 1400.000000,349.000000 
	C1400.000000,349.000000 1399.999390,349.000000 1399.970947,348.375305 
M1515.111450,353.773651 
	C1514.736572,353.929291 1514.361694,354.084930 1513.053223,354.191559 
	C1503.766602,354.191559 1494.479858,354.191559 1484.854858,354.191559 
	C1484.644287,351.324371 1484.333008,349.031372 1484.329590,346.737915 
	C1484.294434,323.590576 1484.296143,300.443085 1484.336548,277.295746 
	C1484.339600,275.489471 1484.713013,273.683838 1485.785156,271.807770 
	C1488.348511,271.532593 1490.911865,271.257416 1493.475342,270.982208 
	C1493.494507,270.449005 1493.513672,269.915771 1493.532837,269.382568 
	C1492.604736,268.968750 1491.680786,268.206787 1490.747803,268.195770 
	C1482.749634,268.101410 1474.749146,268.092804 1466.751709,268.214478 
	C1465.864014,268.227966 1464.991089,269.216217 1464.111328,269.752472 
	C1465.058716,270.389343 1466.080811,271.659180 1466.941162,271.557831 
	C1471.648438,271.003418 1472.394409,273.291595 1472.364746,277.414124 
	C1472.196777,300.744202 1472.242798,324.076202 1472.315186,347.407257 
	C1472.329102,351.858154 1473.117310,356.512543 1466.085083,355.448914 
	C1465.512939,355.362366 1464.755493,356.502258 1464.084106,357.072266 
	C1464.777344,357.622131 1465.475586,358.653717 1466.162720,358.646332 
	C1472.119141,358.582214 1478.073486,358.331390 1484.960083,358.206543 
	C1495.972412,358.367279 1506.984863,358.527985 1518.689575,358.991180 
	C1520.199951,359.232483 1521.710205,359.473816 1524.009766,359.841278 
	C1523.422363,357.351837 1523.028564,355.682617 1522.715698,353.281464 
	C1522.585693,352.564026 1522.455811,351.846558 1522.661987,350.229828 
	C1522.663330,346.123779 1522.836304,342.006256 1522.562988,337.918579 
	C1522.479126,336.663971 1521.172485,335.491150 1520.425781,334.280914 
	C1519.796875,335.522919 1519.167847,336.764893 1518.307495,338.728119 
	C1518.252441,339.480957 1518.197388,340.233765 1517.838013,341.645752 
	C1517.806763,342.807892 1517.775635,343.970062 1517.453979,345.807495 
	C1517.387695,346.535309 1517.321289,347.263123 1516.951294,348.679932 
	C1516.536133,350.369904 1516.120850,352.059845 1515.956177,353.791595 
	C1515.956177,353.791595 1515.717896,353.703400 1515.111450,353.773651 
M1628.451172,316.422882 
	C1628.733765,316.951050 1629.016235,317.479218 1629.231323,318.781464 
	C1629.395142,319.794250 1629.558960,320.807037 1629.407471,322.513855 
	C1629.999512,323.820251 1630.591431,325.126617 1631.183350,326.432953 
	C1631.541504,324.952789 1631.899658,323.472626 1632.313354,321.059814 
	C1632.294189,315.708679 1632.275146,310.357513 1632.653076,304.438629 
	C1632.197632,303.075378 1631.742065,301.712158 1631.286621,300.348907 
	C1630.764893,301.961090 1630.243164,303.573242 1629.464722,305.857910 
	C1629.442871,306.572205 1629.421143,307.286530 1629.061890,308.615845 
	C1628.725830,309.485901 1628.389893,310.355957 1627.111572,311.287170 
	C1618.012817,311.217133 1608.914185,311.147064 1599.873047,310.129669 
	C1599.860107,297.730896 1599.847290,285.332153 1600.782227,272.778076 
	C1607.146484,272.661530 1613.510864,272.544952 1620.744263,272.785248 
	C1622.535645,272.834900 1624.337524,273.032257 1626.116089,272.903961 
	C1630.009033,272.623077 1632.454834,273.842285 1632.493530,278.200500 
	C1632.501709,279.134735 1633.026123,280.064423 1633.299805,281.641907 
	C1633.429443,282.049316 1633.559204,282.456726 1633.397949,283.526825 
	C1633.655396,284.687561 1633.912842,285.848267 1634.143066,287.590027 
	C1634.327759,288.130829 1634.512451,288.671661 1634.958008,289.860138 
	C1636.001953,289.293549 1637.913818,288.782593 1637.954224,288.151672 
	C1638.322510,282.406769 1638.364868,276.640991 1638.720337,270.312408 
	C1638.738892,269.908813 1638.757568,269.505219 1638.590698,268.352905 
	C1637.055786,268.305450 1635.520996,268.257996 1633.142944,268.166656 
	C1631.465820,268.279236 1629.788574,268.391815 1627.193726,268.230896 
	C1612.365356,268.199982 1597.536743,268.130768 1582.708984,268.209381 
	C1581.495972,268.215790 1580.288086,269.229340 1579.077881,269.774933 
	C1580.206299,270.404175 1581.394531,271.655212 1582.452759,271.553558 
	C1586.732788,271.142334 1587.379150,273.270660 1587.360596,276.925995 
	C1587.241211,300.419312 1587.259766,323.913696 1587.333618,347.407379 
	C1587.347656,351.868622 1588.110229,356.508636 1581.089355,355.450287 
	C1580.510620,355.363068 1579.748169,356.494751 1579.071045,357.060089 
	C1579.764038,357.613007 1580.452148,358.640289 1581.150879,358.647552 
	C1591.313599,358.752808 1601.478027,358.753204 1611.640991,358.657654 
	C1612.386230,358.650635 1613.122925,357.714691 1613.863647,357.210663 
	C1613.073120,356.591431 1612.345947,355.573883 1611.479004,355.436157 
	C1609.690063,355.151978 1607.800293,355.134766 1605.998901,355.368652 
	C1601.323120,355.975922 1599.564941,354.378113 1599.720337,349.386932 
	C1600.067627,338.235504 1599.798462,327.064911 1599.895386,315.895172 
	C1599.895386,315.895172 1599.901855,315.780090 1600.851074,315.860443 
	C1609.940308,315.822205 1619.029663,315.783966 1628.170654,315.855682 
	C1628.170654,315.855682 1628.291626,315.844177 1628.451172,316.422882 
M870.990173,354.001831 
	C870.990173,354.001831 870.971008,353.935364 870.037292,353.931793 
	C860.663940,354.089600 851.290527,354.247406 841.256836,354.221924 
	C841.030090,354.194611 840.803284,354.167267 840.594482,353.181244 
	C840.582703,327.869934 840.622864,302.558350 840.502136,277.247559 
	C840.484436,273.534332 840.906067,271.010010 845.528809,271.521942 
	C846.661072,271.647339 847.907043,270.746948 849.795471,270.068604 
	C844.493835,267.143433 821.996704,267.661621 819.065979,270.881531 
	C821.062439,271.177460 822.566040,271.643280 824.041992,271.567932 
	C827.011475,271.416473 828.161865,272.491150 828.151245,275.583618 
	C828.064270,300.894592 828.068054,326.206085 828.152344,351.517090 
	C828.162964,354.709320 826.753967,355.495605 823.901062,355.447845 
	C822.422363,355.423096 820.931458,356.130920 819.446045,356.507812 
	C820.296326,358.023010 821.004761,358.626617 821.711365,358.624542 
	C838.175842,358.575714 854.640137,358.461273 871.796143,358.627625 
	C872.533142,358.648407 873.270203,358.669220 874.656494,358.985077 
	C876.009033,358.621674 877.361633,358.258301 878.784119,357.284363 
	C878.686218,356.890228 878.588318,356.496063 878.718933,355.244843 
	C878.424744,349.495972 878.130493,343.747131 877.927734,337.359558 
	C877.882446,336.933685 877.837158,336.507843 877.831177,335.368835 
	C874.916748,332.904449 874.391968,334.895020 873.962280,337.370972 
	C873.001770,342.905548 871.955017,348.425110 870.990173,354.001831 
M937.310242,469.053986 
	C932.848328,473.157471 928.779053,477.877655 923.744995,481.082489 
	C921.508179,482.506500 916.455566,482.040863 914.213379,480.372955 
	C910.093689,477.308472 912.546814,472.606628 913.469666,468.375916 
	C914.284912,464.638794 916.869141,464.516815 919.667603,463.954895 
	C924.036682,463.077606 928.618347,462.544037 932.636230,460.783691 
	C940.529419,457.325409 943.995605,448.150665 940.680969,441.241180 
	C937.493469,434.596497 928.393799,431.645386 920.755066,435.287537 
	C910.316284,440.264709 903.129700,448.248260 900.410095,459.715668 
	C897.666382,471.284790 904.505737,483.682434 914.686279,485.925812 
	C924.605286,488.111572 935.873291,480.069244 938.663269,469.163177 
	C938.558533,468.871429 938.453735,468.579681 938.348999,468.287903 
	C938.231079,468.523468 938.113220,468.759064 937.310242,469.053986 
M955.052185,341.413055 
	C954.850525,341.107025 954.648865,340.800995 954.407227,339.744476 
	C954.234558,338.503296 954.061890,337.262085 953.985596,335.492065 
	C953.932007,335.321045 953.878418,335.150055 953.886902,334.046875 
	C953.930664,313.373566 953.974426,292.700287 954.866638,271.863037 
	C957.445129,271.569885 960.023682,271.276733 963.481140,270.883667 
	C959.702209,267.563080 937.215820,267.226135 932.979797,270.731171 
	C935.954651,271.223846 938.929565,271.716492 941.937988,273.119568 
	C941.949585,292.595856 941.882141,312.072571 941.998047,331.548248 
	C942.089722,346.939240 949.678284,356.207367 964.712219,359.243988 
	C968.258240,359.960236 971.985901,360.046692 975.623718,359.993591 
	C994.353333,359.720428 1004.935913,348.997528 1005.008057,330.263245 
	C1005.072083,313.617004 1005.024597,296.970337 1005.026245,280.323853 
	C1005.027100,272.007202 1005.027832,272.012268 1012.898621,270.773102 
	C1013.109436,270.739899 1013.255859,270.297913 1013.430664,270.045349 
	C1010.226196,267.409790 994.302368,267.542480 991.440979,270.490173 
	C992.347839,270.728607 993.125427,271.180603 993.818909,271.075867 
	C999.010498,270.291992 1000.220886,272.598694 1000.140747,277.548401 
	C999.846985,295.688416 1000.103943,313.836487 999.975525,331.980286 
	C999.891052,343.913788 993.787720,351.642029 982.940063,354.090332 
	C969.757202,357.065674 960.502014,353.043213 955.052185,341.413055 
M521.518433,109.998955 
	C508.322113,111.532524 494.849640,111.864235 481.980255,114.820847 
	C440.283020,124.400352 406.912415,147.877808 378.718811,179.345596 
	C372.049469,186.789459 370.085358,186.854233 363.261230,179.710999 
	C327.423828,142.197845 286.074829,114.919807 232.753922,110.535927 
	C204.355927,108.201126 176.214432,109.386467 148.845657,118.632500 
	C111.128883,131.374420 81.224770,155.109879 55.191021,184.444656 
	C25.665936,217.713425 9.115203,255.745819 9.914783,301.022095 
	C10.570810,338.169708 9.591319,375.343842 9.561724,412.506409 
	C9.502398,486.999573 9.676319,561.493042 9.561563,635.986023 
	C9.538293,651.091431 16.917576,661.079895 29.611866,667.877930 
	C32.819908,669.596008 36.308590,670.797241 39.689686,672.183838 
	C55.126961,678.514465 73.065285,673.550354 83.017647,660.215881 
	C90.549980,650.123840 94.009666,638.776978 94.003410,626.193298 
	C93.951958,522.702454 94.232620,419.210419 93.755669,315.721771 
	C93.653893,293.638184 99.275223,273.941833 109.988945,254.944870 
	C142.391998,197.489502 209.113205,177.072067 270.999023,212.064499 
	C276.311188,215.068161 276.537170,217.696381 271.661499,221.381744 
	C267.150970,224.791107 262.408386,227.891815 257.807190,231.183273 
	C236.371246,246.517456 217.559799,264.505310 202.212982,286.026154 
	C178.624298,319.104614 167.700653,356.028351 167.845779,396.547302 
	C168.008743,442.040436 167.576599,487.535828 167.777161,533.028625 
	C167.832001,545.471191 167.900986,558.165588 170.255569,570.299561 
	C177.637650,608.341980 196.413269,639.914795 230.915482,658.719421 
	C275.063324,682.781067 319.056519,679.836670 360.990967,651.576050 
	C369.876617,645.587769 372.396210,645.781494 380.973755,652.151611 
	C408.210175,672.379089 438.949982,678.327759 471.780365,672.361511 
	C498.638611,667.480591 520.583679,652.631592 540.098572,634.177734 
	C556.823425,618.362244 567.833008,599.070068 570.460632,576.096863 
	C572.330078,559.752625 572.717407,543.169800 572.715576,526.693542 
	C572.710083,478.037781 572.298462,429.380829 571.788025,380.727081 
	C571.637207,366.350067 569.014343,352.247375 564.492493,338.575836 
	C549.894958,294.441071 521.729675,260.502106 484.932648,233.100220 
	C479.462341,229.026596 473.721130,225.296448 468.437439,220.999023 
	C464.381592,217.700241 464.819580,214.561874 469.376373,211.959244 
	C472.975861,209.903412 476.782440,208.200394 480.541351,206.435043 
	C510.186340,192.512482 539.884216,190.486252 570.717102,203.602417 
	C614.954407,222.420761 646.619141,255.296280 646.270569,315.468170 
	C645.690369,415.620697 646.269470,515.780151 646.479309,615.936523 
	C646.494263,623.067383 646.958679,630.282593 648.122070,637.308289 
	C650.658081,652.624207 657.115295,665.429871 672.443237,671.981689 
	C694.829102,681.550354 730.887573,669.221130 730.884277,631.637695 
	C730.874756,521.980835 731.002441,412.323761 730.753540,302.667542 
	C730.727661,291.258789 729.842224,279.537964 727.146240,268.501617 
	C712.596680,208.940552 677.771362,164.275101 625.136475,133.404221 
	C593.481079,114.838005 558.931335,108.111137 521.518433,109.998955 
M1222.265747,442.751160 
	C1220.467773,444.230225 1218.564819,445.599609 1216.888916,447.205963 
	C1204.603638,458.981812 1207.478516,476.649048 1222.967041,483.728455 
	C1233.788086,488.674469 1244.120972,486.701233 1253.686523,480.279724 
	C1257.298584,477.854828 1259.759766,477.168121 1263.674927,480.429871 
	C1273.941406,488.982819 1287.138794,488.237671 1296.682373,479.014313 
	C1298.881226,476.889252 1300.089966,473.739777 1301.754272,471.061737 
	C1301.326294,470.734985 1300.898315,470.408264 1300.470337,470.081512 
	C1298.421875,471.663177 1296.412598,473.298920 1294.317749,474.816620 
	C1287.280518,479.915222 1278.999756,478.767578 1273.509766,471.978180 
	C1269.107422,466.533875 1269.044556,465.257416 1272.978638,459.483978 
	C1275.973755,455.088562 1278.843628,450.596466 1282.053101,446.362640 
	C1284.293335,443.407562 1287.013916,440.816650 1289.954834,437.585175 
	C1290.883057,439.902954 1291.502197,441.224091 1291.946533,442.601562 
	C1293.164673,446.377106 1296.371216,446.950226 1299.158813,445.846069 
	C1300.954346,445.134857 1302.805298,442.452087 1303.077515,440.442596 
	C1303.657593,436.157623 1301.126221,433.230164 1296.999023,431.917999 
	C1291.341309,430.119293 1285.875000,432.054901 1282.199097,437.348816 
	C1278.028198,443.355469 1274.073242,449.511597 1269.963867,455.561554 
	C1268.776123,457.310089 1267.224243,459.931305 1265.163330,456.826691 
	C1260.479980,449.771576 1256.869263,442.185974 1255.435059,433.579437 
	C1259.638184,431.578491 1263.612793,429.894775 1267.376343,427.827026 
	C1270.266602,426.239136 1273.233276,424.519135 1275.569580,422.245117 
	C1282.771240,415.235168 1281.263794,406.384186 1272.312744,401.930206 
	C1262.450317,397.022827 1252.863647,397.796875 1244.160645,404.384979 
	C1235.861694,410.667297 1235.389160,419.527039 1237.676392,428.796051 
	C1238.501831,432.140808 1237.503174,434.097534 1234.507202,435.636444 
	C1230.524292,437.682220 1226.713501,440.063171 1222.265747,442.751160 
M1681.713867,425.280853 
	C1683.217773,416.866730 1686.395996,408.630981 1684.591919,399.836548 
	C1677.365112,400.302826 1670.328247,400.756836 1663.291382,401.210846 
	C1663.306274,401.878265 1663.321167,402.545685 1663.336060,403.213074 
	C1665.573730,403.481689 1667.807739,403.789337 1670.050293,404.008453 
	C1672.493408,404.247131 1674.366333,404.948029 1673.660522,407.989197 
	C1671.352783,417.934448 1669.032593,427.876801 1666.983765,436.675476 
	C1661.117798,435.795166 1655.645508,433.426086 1651.050293,434.572693 
	C1636.910156,438.101044 1626.065308,455.503601 1628.134888,469.851562 
	C1629.176880,477.076141 1633.139160,482.659698 1639.936157,485.453583 
	C1646.194580,488.026031 1651.161865,484.720276 1655.645264,480.604523 
	C1656.474121,479.843811 1657.427124,479.218597 1658.399536,478.471954 
	C1659.090332,479.518219 1659.603149,480.374695 1660.192505,481.174896 
	C1664.862183,487.516205 1669.863159,488.172119 1675.001465,482.346344 
	C1678.128052,478.801422 1680.247681,474.345154 1682.632080,470.190552 
	C1683.054688,469.454193 1682.555542,468.188690 1682.441406,466.603516 
	C1676.858887,469.295929 1678.315308,477.685944 1670.004639,478.470978 
	C1673.913574,460.581421 1677.682983,443.330597 1681.713867,425.280853 
M1340.814087,467.141113 
	C1339.284790,478.866913 1345.456177,486.031036 1357.270264,486.244263 
	C1373.494385,486.537018 1388.092041,470.572327 1388.312866,452.294312 
	C1388.472290,439.098114 1378.644775,431.745056 1366.019165,435.589569 
	C1364.574219,436.029572 1363.080078,436.307892 1360.604614,436.902283 
	C1363.380249,424.109619 1365.917969,412.413391 1368.646729,399.836365 
	C1361.422241,400.298889 1355.315674,400.689819 1349.209106,401.080780 
	C1349.153076,401.625519 1349.096924,402.170258 1349.040894,402.715027 
	C1350.658569,403.599640 1352.276123,404.484253 1354.116333,405.490570 
	C1349.710938,425.806519 1345.320557,446.054077 1340.814087,467.141113 
M1698.839722,327.275177 
	C1696.367676,333.986267 1693.716064,340.638306 1691.483154,347.427979 
	C1689.845581,352.407745 1688.124756,356.877106 1681.660767,356.421417 
	C1681.587402,356.416229 1681.473999,356.977905 1681.389771,357.278320 
	C1686.193481,359.558990 1700.389526,359.017700 1702.602173,356.245575 
	C1699.750000,355.957550 1697.055420,355.685394 1693.781738,355.354797 
	C1696.846313,346.794617 1699.540161,338.783600 1702.686646,330.954590 
	C1703.217163,329.634460 1705.676392,328.377319 1707.286011,328.323303 
	C1715.268311,328.055237 1723.266724,328.104431 1731.253662,328.291626 
	C1732.628174,328.323853 1734.787842,329.240601 1735.204468,330.294434 
	C1738.422241,338.434723 1741.300049,346.709320 1744.441040,355.377197 
	C1740.996216,355.746185 1738.255371,356.039764 1734.429565,356.449585 
	C1739.531738,359.353485 1761.615601,359.104065 1765.333862,356.082947 
	C1755.943359,357.422821 1755.671143,350.509216 1753.686035,345.123474 
	C1744.885254,321.247559 1736.112793,297.360748 1727.152222,273.544830 
	C1726.404053,271.556091 1724.332153,270.065308 1722.875244,268.343140 
	C1721.422607,270.098328 1719.373047,271.627869 1718.611084,273.644073 
	C1711.966797,291.223114 1705.553223,308.889282 1698.839722,327.275177 
M1109.941650,355.816772 
	C1096.305664,353.970337 1089.603516,344.794586 1086.042847,332.688965 
	C1082.888794,321.965637 1082.592041,310.889221 1084.926147,300.052887 
	C1086.263428,293.844513 1088.600830,287.514313 1091.947876,282.149841 
	C1097.967285,272.502319 1107.421753,269.693787 1118.473877,271.729034 
	C1128.576172,273.589325 1134.810669,279.359436 1137.041992,289.440918 
	C1137.279907,290.516205 1137.980591,291.489075 1138.466553,292.509430 
	C1138.829224,292.393860 1139.191772,292.278259 1139.554443,292.162659 
	C1139.554443,284.174072 1139.554443,276.185516 1139.554443,268.196930 
	C1139.076416,267.912903 1138.598389,267.628906 1138.120361,267.344879 
	C1137.821533,268.079254 1137.330078,268.794708 1137.255859,269.550995 
	C1136.877563,273.411102 1134.537476,273.523132 1132.028564,271.956940 
	C1124.454102,267.228607 1116.070557,268.249573 1107.784058,267.911469 
	C1096.363892,267.445465 1087.856323,272.659607 1081.153931,281.113556 
	C1070.753906,294.231445 1069.886963,309.565613 1072.176636,325.303040 
	C1076.262329,353.383423 1104.379639,368.164581 1129.717163,355.501434 
	C1133.956909,353.382477 1136.600586,353.232635 1138.278931,358.084869 
	C1138.319824,358.203094 1138.884155,358.140289 1139.527710,358.183777 
	C1139.527710,350.304535 1139.527710,342.472443 1139.527710,334.640350 
	C1139.050659,334.276703 1138.573730,333.913055 1138.096680,333.549438 
	C1135.481201,349.587860 1125.636108,356.044495 1109.941650,355.816772 
M1224.779541,279.296539 
	C1245.377319,263.639221 1260.082642,269.366791 1269.940186,292.646301 
	C1272.181030,284.902161 1271.356445,269.829376 1268.691772,268.132202 
	C1267.617310,270.340698 1267.674316,274.805237 1263.478760,272.235321 
	C1255.574585,267.393646 1246.925171,268.208344 1238.290161,267.895294 
	C1228.901489,267.554932 1221.392700,271.269562 1215.072144,277.607513 
	C1202.668213,290.045685 1200.618408,305.730133 1202.560913,322.116364 
	C1204.640381,339.659271 1213.118408,352.920868 1230.788940,358.442688 
	C1241.245361,361.710144 1251.535767,360.558685 1261.240479,355.258148 
	C1264.556519,353.446930 1267.559692,352.414429 1268.494385,357.711273 
	C1268.537720,357.957123 1269.327148,358.071259 1270.422607,358.506226 
	C1270.422607,350.346252 1270.422607,342.531921 1270.422607,334.717590 
	C1270.014160,334.607391 1269.605713,334.497192 1269.197266,334.386993 
	C1268.551758,336.044617 1267.747314,337.659454 1267.287720,339.367157 
	C1264.909424,348.202576 1258.919434,353.130341 1250.262695,355.023529 
	C1236.480347,358.037659 1224.669922,352.496796 1219.424438,339.288452 
	C1216.593628,332.160706 1214.931519,324.226288 1214.513550,316.559204 
	C1213.800537,303.475250 1215.319824,290.543396 1224.779541,279.296539 
M1564.475586,476.831696 
	C1564.045532,479.055206 1563.615479,481.278748 1563.157227,483.647400 
	C1564.626099,484.003357 1565.728394,484.338623 1566.854980,484.532288 
	C1572.963135,485.582428 1575.294678,484.101746 1576.723877,478.257263 
	C1577.867065,473.582001 1578.851318,468.864777 1580.111328,464.221863 
	C1582.095215,456.911011 1584.938721,449.907043 1590.953003,444.999054 
	C1593.343140,443.048553 1596.752441,442.346954 1599.697754,441.076813 
	C1599.934937,444.182312 1600.778198,447.386200 1600.293091,450.374420 
	C1598.963379,458.564331 1596.913086,466.635071 1595.479248,474.811066 
	C1594.797363,478.699188 1595.258667,483.327545 1599.174438,484.815002 
	C1602.291016,485.998779 1607.234253,486.033569 1609.767212,484.274902 
	C1614.061646,481.293243 1617.212524,476.589722 1620.581055,472.398529 
	C1621.493774,471.262878 1621.461548,469.367676 1621.863037,467.821075 
	C1621.433716,467.612671 1621.004272,467.404266 1620.574951,467.195862 
	C1615.993896,470.195221 1616.054810,478.138397 1608.235840,478.984589 
	C1608.374390,476.464233 1608.251831,474.237000 1608.656372,472.110016 
	C1610.393433,462.976959 1612.720825,453.932892 1613.978516,444.739471 
	C1614.924438,437.825165 1609.980713,433.108063 1603.043213,434.006317 
	C1599.610229,434.450836 1596.248657,436.379944 1593.144287,438.146118 
	C1590.506592,439.646851 1588.284058,441.877625 1584.705811,444.714783 
	C1585.163696,441.757446 1585.651367,440.216827 1585.553223,438.714539 
	C1585.479248,437.583679 1584.769165,435.615356 1584.145386,435.534363 
	C1577.303955,434.645477 1570.371826,433.561096 1562.929688,437.552124 
	C1564.934937,438.155884 1565.993774,438.774689 1567.026611,438.734161 
	C1571.723145,438.549896 1572.509033,440.414703 1571.416016,444.848175 
	C1568.872314,455.165375 1566.918457,465.627991 1564.475586,476.831696 
M1029.775757,466.477051 
	C1030.975464,470.725677 1031.367065,475.450684 1033.535156,479.128418 
	C1038.824097,488.100250 1048.484741,488.625916 1055.632568,480.968170 
	C1056.482300,480.057953 1057.475464,479.281708 1058.653687,478.215759 
	C1060.050781,480.237946 1061.053223,481.936035 1062.295898,483.434937 
	C1064.723999,486.363800 1067.803467,487.093292 1071.215576,485.358368 
	C1078.701172,481.552277 1081.797363,474.789612 1084.113159,466.665741 
	C1077.656372,468.521729 1078.545410,477.221313 1070.714355,477.982422 
	C1073.718262,463.737640 1076.580078,450.167542 1079.480347,436.414459 
	C1074.218384,434.183960 1069.651001,433.952911 1066.032104,438.684998 
	C1056.293945,432.188873 1052.596802,432.217102 1043.969971,438.762207 
	C1035.098389,445.492920 1030.223877,454.352570 1029.775757,466.477051 
M1454.179199,509.800995 
	C1452.209839,510.967560 1450.240479,512.134155 1448.197144,513.344543 
	C1446.371826,511.362213 1445.083618,509.195679 1443.179199,508.128265 
	C1441.537109,507.207672 1438.563843,506.668823 1437.334839,507.558197 
	C1436.079834,508.466400 1435.210205,512.051025 1436.000488,513.157227 
	C1437.309326,514.988892 1440.030151,516.702881 1442.251221,516.832153 
	C1450.447754,517.308960 1457.492554,513.880432 1462.157959,507.373230 
	C1468.226318,498.909790 1474.011719,490.104462 1478.702759,480.831146 
	C1483.553101,471.242859 1486.946655,460.917694 1490.978027,450.915009 
	C1492.500244,447.138153 1494.459351,444.402374 1499.382935,444.774658 
	C1500.843750,444.885132 1503.483398,442.392090 1503.819336,440.734650 
	C1504.154053,439.083282 1502.748657,436.375702 1501.260864,435.215179 
	C1498.709106,433.224792 1495.609009,433.809692 1494.013428,436.778870 
	C1490.174438,443.922577 1486.679321,451.250549 1483.007202,458.484802 
	C1481.998169,460.472504 1480.854736,462.391937 1479.040283,465.664093 
	C1477.693970,461.468079 1476.852539,458.689606 1475.911499,455.945343 
	C1474.031982,450.463959 1472.391968,444.873596 1470.091309,439.572083 
	C1468.301636,435.447906 1464.853516,433.024933 1460.024170,434.109192 
	C1454.407593,435.370209 1446.526855,447.367737 1447.282837,453.295166 
	C1447.308350,453.495117 1447.778809,453.638336 1448.274658,453.957886 
	C1452.353760,450.801025 1450.784912,442.993134 1457.736938,441.841461 
	C1459.188599,446.120941 1460.667358,450.174530 1461.939819,454.291840 
	C1464.929810,463.966217 1467.864380,473.658569 1470.695923,483.380157 
	C1471.032715,484.536285 1470.976440,486.113525 1470.447388,487.166473 
	C1466.339966,495.341949 1462.311523,503.607391 1454.179199,509.800995 
M1551.752319,463.021088 
	C1552.145874,460.561646 1552.735474,458.114990 1552.897217,455.640350 
	C1553.439941,447.340057 1550.507812,440.580200 1543.281372,436.179413 
	C1536.233398,431.887390 1529.243408,433.195526 1522.577271,437.261292 
	C1510.743286,444.479095 1505.818604,455.154968 1506.903809,468.849792 
	C1507.973511,482.351562 1521.039795,490.194427 1533.309814,484.457184 
	C1542.320190,480.244110 1548.627075,473.498138 1551.752319,463.021088 
M1412.081055,481.987793 
	C1406.526611,479.401428 1408.018677,474.825806 1408.656860,470.357422 
	C1409.287109,465.944183 1411.788208,464.365875 1416.038940,463.922699 
	C1420.121338,463.497070 1424.333252,462.721191 1428.096313,461.156769 
	C1435.731079,457.982758 1439.859131,448.821075 1437.123901,442.406189 
	C1433.942627,434.945343 1425.829102,431.766632 1417.394409,435.073700 
	C1407.935669,438.782227 1401.335693,445.663177 1397.609375,455.028564 
	C1394.106445,463.832642 1394.952515,472.370087 1400.981201,479.933868 
	C1405.692139,485.844299 1413.263794,487.727386 1420.321411,485.127045 
	C1427.876709,482.343353 1433.581909,475.456451 1433.572266,468.249023 
	C1427.878418,475.363251 1423.281372,483.336700 1412.081055,481.987793 
M1131.140381,455.749603 
	C1130.540405,458.334564 1129.686646,460.890289 1129.385132,463.509583 
	C1128.185303,473.932343 1136.181030,485.028778 1145.505249,486.103394 
	C1155.675781,487.275543 1166.332764,478.772064 1167.815796,467.793121 
	C1165.274414,470.794739 1163.235962,473.631348 1160.755005,476.005188 
	C1158.513794,478.149445 1156.026367,480.356598 1153.225952,481.527985 
	C1147.782227,483.805115 1143.116455,481.612518 1142.075684,476.965363 
	C1140.552612,470.164917 1144.173218,464.810455 1150.920532,463.854004 
	C1152.897095,463.573792 1155.025391,463.604797 1156.802368,462.838928 
	C1160.256836,461.350037 1163.956909,459.918274 1166.752808,457.525238 
	C1171.920654,453.102234 1172.896484,445.485870 1169.732300,440.258636 
	C1166.518799,434.950043 1159.294678,432.367065 1152.569702,434.503479 
	C1142.167725,437.807983 1135.734497,445.355011 1131.140381,455.749603 
M982.541199,459.025452 
	C977.436646,455.646393 972.307739,452.303497 967.234863,448.877594 
	C962.661682,445.789124 962.649048,442.673157 967.122131,439.594391 
	C971.030029,436.904694 974.898315,437.712860 978.936523,439.600525 
	C978.936523,441.080109 978.482117,442.648041 979.038940,443.658844 
	C979.963867,445.337738 981.460754,447.726715 982.861389,447.828583 
	C984.248657,447.929504 986.532410,445.850006 987.157166,444.236694 
	C988.582397,440.556305 986.572998,437.703766 983.287354,436.103241 
	C977.697327,433.380219 971.795471,432.791626 965.872314,434.937683 
	C959.889465,437.105377 955.472107,441.153351 954.171265,447.486938 
	C952.867004,453.836639 956.707458,458.197052 961.292542,461.865967 
	C963.099426,463.311829 965.138916,464.470123 967.090881,465.730774 
	C969.318115,467.169098 971.774597,468.333557 973.761108,470.046570 
	C977.801025,473.530304 977.606262,476.118805 973.532532,479.371002 
	C969.418091,482.655701 964.849915,483.205963 959.896851,481.845093 
	C957.012878,481.052734 955.570374,479.642578 955.684509,476.235443 
	C955.765381,473.820892 954.351562,471.356232 953.493469,468.549408 
	C945.535889,473.837677 945.400513,478.740479 952.274536,483.083679 
	C959.837280,487.862061 967.860718,487.295410 975.645020,483.770081 
	C986.127808,479.022614 989.115112,468.710968 982.541199,459.025452 
M1116.335083,431.489929 
	C1116.637085,428.514832 1116.939087,425.539703 1117.262329,422.354645 
	C1105.313110,423.680420 1105.392456,422.563446 1103.287109,431.329376 
	C1102.928345,432.823090 1100.416748,433.906586 1098.752686,434.943512 
	C1097.589233,435.668457 1096.175293,435.991150 1094.873169,436.493500 
	C1094.547729,436.946747 1094.222290,437.399994 1093.896729,437.853241 
	C1103.282471,438.216553 1100.645264,443.556946 1099.690918,448.174286 
	C1097.940796,456.642639 1095.927979,465.064972 1094.465698,473.582184 
	C1093.069580,481.714935 1097.620972,486.683289 1104.984253,486.180359 
	C1112.519165,485.665741 1121.831543,474.051941 1119.125122,466.634521 
	C1117.240601,469.435120 1115.859985,472.074158 1113.917847,474.200134 
	C1112.140991,476.145142 1109.757080,477.535583 1107.640625,479.170410 
	C1107.171997,478.762268 1106.703491,478.354156 1106.234985,477.946014 
	C1108.545166,467.424225 1110.935425,456.919067 1113.126465,446.372528 
	C1114.013184,442.103455 1114.911133,438.190918 1120.491821,438.233337 
	C1121.030884,438.237457 1121.577026,437.304718 1122.088623,436.835571 
	C1119.982666,435.197723 1118.149292,433.771790 1116.335083,431.489929 
M1011.124329,455.828705 
	C1011.592712,453.891144 1012.113037,451.964447 1012.519409,450.013977 
	C1013.684814,444.420349 1014.095825,438.273834 1021.969971,437.878784 
	C1022.203796,437.867065 1022.399658,437.097534 1022.812988,436.291931 
	C1019.672852,434.718201 1015.077332,434.261780 1017.025574,428.690735 
	C1017.639587,426.934967 1016.457031,424.550903 1016.096680,422.454376 
	C1012.485779,423.598480 1006.240479,424.080505 1005.755432,426.010223 
	C1004.270874,431.917542 1001.683044,435.292847 995.738647,436.168823 
	C995.590393,436.190674 995.513062,436.694305 995.316040,437.192078 
	C995.727356,437.560120 996.163269,438.297607 996.672485,438.352234 
	C1001.928162,438.915863 1001.493713,442.146393 1000.483948,445.914764 
	C999.539551,449.439270 998.825500,453.030792 998.135193,456.616943 
	C996.912476,462.968750 995.258362,469.297760 994.757812,475.712219 
	C994.200867,482.850006 998.352661,486.644684 1004.869507,486.173828 
	C1013.206604,485.571411 1020.981995,475.603333 1019.570129,466.990906 
	C1015.200073,470.691498 1014.871155,478.590240 1006.500610,478.706573 
	C1008.042114,471.156067 1009.521851,463.908356 1011.124329,455.828705 
z"/>
<path fill="#23201F" opacity="1.000000" stroke="none" 
	d="
M522.015869,109.996384 
	C558.931335,108.111137 593.481079,114.838005 625.136475,133.404221 
	C677.771362,164.275101 712.596680,208.940552 727.146240,268.501617 
	C729.842224,279.537964 730.727661,291.258789 730.753540,302.667542 
	C731.002441,412.323761 730.874756,521.980835 730.884277,631.637695 
	C730.887573,669.221130 694.829102,681.550354 672.443237,671.981689 
	C657.115295,665.429871 650.658081,652.624207 648.122070,637.308289 
	C646.958679,630.282593 646.494263,623.067383 646.479309,615.936523 
	C646.269470,515.780151 645.690369,415.620697 646.270569,315.468170 
	C646.619141,255.296280 614.954407,222.420761 570.717102,203.602417 
	C539.884216,190.486252 510.186340,192.512482 480.541351,206.435043 
	C476.782440,208.200394 472.975861,209.903412 469.376373,211.959244 
	C464.819580,214.561874 464.381592,217.700241 468.437439,220.999023 
	C473.721130,225.296448 479.462341,229.026596 484.932648,233.100220 
	C521.729675,260.502106 549.894958,294.441071 564.492493,338.575836 
	C569.014343,352.247375 571.637207,366.350067 571.788025,380.727081 
	C572.298462,429.380829 572.710083,478.037781 572.715576,526.693542 
	C572.717407,543.169800 572.330078,559.752625 570.460632,576.096863 
	C567.833008,599.070068 556.823425,618.362244 540.098572,634.177734 
	C520.583679,652.631592 498.638611,667.480591 471.780365,672.361511 
	C438.949982,678.327759 408.210175,672.379089 380.973755,652.151611 
	C372.396210,645.781494 369.876617,645.587769 360.990967,651.576050 
	C319.056519,679.836670 275.063324,682.781067 230.915482,658.719421 
	C196.413269,639.914795 177.637650,608.341980 170.255569,570.299561 
	C167.900986,558.165588 167.832001,545.471191 167.777161,533.028625 
	C167.576599,487.535828 168.008743,442.040436 167.845779,396.547302 
	C167.700653,356.028351 178.624298,319.104614 202.212982,286.026154 
	C217.559799,264.505310 236.371246,246.517456 257.807190,231.183273 
	C262.408386,227.891815 267.150970,224.791107 271.661499,221.381744 
	C276.537170,217.696381 276.311188,215.068161 270.999023,212.064499 
	C209.113205,177.072067 142.391998,197.489502 109.988945,254.944870 
	C99.275223,273.941833 93.653893,293.638184 93.755669,315.721771 
	C94.232620,419.210419 93.951958,522.702454 94.003410,626.193298 
	C94.009666,638.776978 90.549980,650.123840 83.017647,660.215881 
	C73.065285,673.550354 55.126961,678.514465 39.689686,672.183838 
	C36.308590,670.797241 32.819908,669.596008 29.611866,667.877930 
	C16.917576,661.079895 9.538293,651.091431 9.561563,635.986023 
	C9.676319,561.493042 9.502398,486.999573 9.561724,412.506409 
	C9.591319,375.343842 10.570810,338.169708 9.914783,301.022095 
	C9.115203,255.745819 25.665936,217.713425 55.191021,184.444656 
	C81.224770,155.109879 111.128883,131.374420 148.845657,118.632500 
	C176.214432,109.386467 204.355927,108.201126 232.753922,110.535927 
	C286.074829,114.919807 327.423828,142.197845 363.261230,179.710999 
	C370.085358,186.854233 372.049469,186.789459 378.718811,179.345596 
	C406.912415,147.877808 440.283020,124.400352 481.980255,114.820847 
	C494.849640,111.864235 508.322113,111.532524 522.015869,109.996384 
M326.740875,436.536957 
	C326.496521,431.078949 326.049255,425.621246 326.040314,420.162842 
	C325.976898,381.352325 326.012634,342.541656 325.976898,303.731049 
	C325.974762,301.417023 325.904175,299.039246 325.384155,296.803070 
	C324.362610,292.410187 322.191772,291.300232 318.079773,293.017029 
	C315.955750,293.903839 313.809753,295.019928 312.069672,296.498444 
	C301.302032,305.647614 290.361755,314.623932 280.043213,324.261902 
	C271.548096,332.196747 266.031433,342.316620 261.892242,353.177582 
	C255.515686,369.909271 253.499298,387.430176 253.174515,405.091858 
	C252.494766,442.054993 252.158096,479.027924 252.108810,515.997375 
	C252.090637,529.628601 252.626083,543.331360 254.078384,556.876160 
	C255.981018,574.620728 269.132782,586.718201 286.401428,588.087585 
	C305.279205,589.584656 318.997955,580.616211 324.128052,562.643982 
	C325.837616,556.654968 326.609619,550.208618 326.649139,543.963928 
	C326.873779,508.486176 326.746735,473.006165 326.740875,436.536957 
M488.035431,435.500000 
	C487.354492,421.199493 487.332703,406.829712 485.838135,392.614746 
	C483.594452,371.274475 477.946381,350.835419 466.192322,332.482117 
	C455.702179,316.102356 441.570160,303.744385 424.516907,294.639862 
	C418.060364,291.192749 415.762207,292.425446 414.871155,299.510742 
	C414.435364,302.975739 414.042084,306.476227 414.039032,309.961029 
	C413.968170,390.276764 413.896667,470.592682 414.061462,550.908081 
	C414.072113,556.094482 415.219727,561.585815 417.161194,566.402161 
	C422.532196,579.726685 432.376373,587.405273 447.184418,588.088257 
	C462.734650,588.805481 474.836487,583.541870 481.945740,568.965149 
	C486.339691,559.955872 488.153748,550.460999 488.127106,540.476990 
	C488.034698,505.818146 488.056946,471.159027 488.035431,435.500000 
z"/>
<path fill="#282423" opacity="1.000000" stroke="none" 
	d="
M1222.547363,442.525665 
	C1226.713501,440.063171 1230.524292,437.682220 1234.507202,435.636444 
	C1237.503174,434.097534 1238.501831,432.140808 1237.676392,428.796051 
	C1235.389160,419.527039 1235.861694,410.667297 1244.160645,404.384979 
	C1252.863647,397.796875 1262.450317,397.022827 1272.312744,401.930206 
	C1281.263794,406.384186 1282.771240,415.235168 1275.569580,422.245117 
	C1273.233276,424.519135 1270.266602,426.239136 1267.376343,427.827026 
	C1263.612793,429.894775 1259.638184,431.578491 1255.435059,433.579437 
	C1256.869263,442.185974 1260.479980,449.771576 1265.163330,456.826691 
	C1267.224243,459.931305 1268.776123,457.310089 1269.963867,455.561554 
	C1274.073242,449.511597 1278.028198,443.355469 1282.199097,437.348816 
	C1285.875000,432.054901 1291.341309,430.119293 1296.999023,431.917999 
	C1301.126221,433.230164 1303.657593,436.157623 1303.077515,440.442596 
	C1302.805298,442.452087 1300.954346,445.134857 1299.158813,445.846069 
	C1296.371216,446.950226 1293.164673,446.377106 1291.946533,442.601562 
	C1291.502197,441.224091 1290.883057,439.902954 1289.954834,437.585175 
	C1287.013916,440.816650 1284.293335,443.407562 1282.053101,446.362640 
	C1278.843628,450.596466 1275.973755,455.088562 1272.978638,459.483978 
	C1269.044556,465.257416 1269.107422,466.533875 1273.509766,471.978180 
	C1278.999756,478.767578 1287.280518,479.915222 1294.317749,474.816620 
	C1296.412598,473.298920 1298.421875,471.663177 1300.470337,470.081512 
	C1300.898315,470.408264 1301.326294,470.734985 1301.754272,471.061737 
	C1300.089966,473.739777 1298.881226,476.889252 1296.682373,479.014313 
	C1287.138794,488.237671 1273.941406,488.982819 1263.674927,480.429871 
	C1259.759766,477.168121 1257.298584,477.854828 1253.686523,480.279724 
	C1244.120972,486.701233 1233.788086,488.674469 1222.967041,483.728455 
	C1207.478516,476.649048 1204.603638,458.981812 1216.888916,447.205963 
	C1218.564819,445.599609 1220.467773,444.230225 1222.547363,442.525665 
M1244.160645,477.930450 
	C1248.016724,476.335510 1251.872925,474.740570 1255.487427,473.245544 
	C1250.107300,461.468628 1245.200195,450.727539 1240.171143,439.719208 
	C1238.112671,440.762695 1236.118896,441.581573 1234.325195,442.716553 
	C1227.352173,447.128510 1224.893555,454.654602 1227.343384,463.704315 
	C1229.900879,473.151001 1234.910278,477.626160 1244.160645,477.930450 
M1262.949585,402.937592 
	C1261.794312,402.873444 1260.630127,402.683594 1259.485229,402.765137 
	C1250.710327,403.390259 1247.465942,407.201385 1249.086914,415.729431 
	C1249.872437,419.862061 1251.648560,423.806366 1253.021362,427.973053 
	C1260.104126,425.671570 1265.540283,422.549713 1268.159668,415.928711 
	C1270.580078,409.810730 1269.464844,406.539093 1262.949585,402.937592 
z"/>
<path fill="#282524" opacity="1.000000" stroke="none" 
	d="
M1681.583130,425.680328 
	C1677.682983,443.330597 1673.913574,460.581421 1670.004639,478.470978 
	C1678.315308,477.685944 1676.858887,469.295929 1682.441406,466.603516 
	C1682.555542,468.188690 1683.054688,469.454193 1682.632080,470.190552 
	C1680.247681,474.345154 1678.128052,478.801422 1675.001465,482.346344 
	C1669.863159,488.172119 1664.862183,487.516205 1660.192505,481.174896 
	C1659.603149,480.374695 1659.090332,479.518219 1658.399536,478.471954 
	C1657.427124,479.218597 1656.474121,479.843811 1655.645264,480.604523 
	C1651.161865,484.720276 1646.194580,488.026031 1639.936157,485.453583 
	C1633.139160,482.659698 1629.176880,477.076141 1628.134888,469.851562 
	C1626.065308,455.503601 1636.910156,438.101044 1651.050293,434.572693 
	C1655.645508,433.426086 1661.117798,435.795166 1666.983765,436.675476 
	C1669.032593,427.876801 1671.352783,417.934448 1673.660522,407.989197 
	C1674.366333,404.948029 1672.493408,404.247131 1670.050293,404.008453 
	C1667.807739,403.789337 1665.573730,403.481689 1663.336060,403.213074 
	C1663.321167,402.545685 1663.306274,401.878265 1663.291382,401.210846 
	C1670.328247,400.756836 1677.365112,400.302826 1684.591919,399.836548 
	C1686.395996,408.630981 1683.217773,416.866730 1681.583130,425.680328 
M1655.827026,473.213531 
	C1658.452637,465.537384 1661.336304,457.936829 1663.615845,450.159210 
	C1665.209106,444.723602 1662.495483,439.489838 1658.218140,438.191711 
	C1654.325439,437.010284 1650.116699,439.033417 1648.390869,444.547729 
	C1645.178101,454.812561 1642.509155,465.280914 1640.280273,475.805725 
	C1639.236328,480.735443 1643.887939,483.757690 1648.249634,481.109650 
	C1651.074341,479.394714 1653.068115,476.311340 1655.827026,473.213531 
z"/>
<path fill="#272423" opacity="1.000000" stroke="none" 
	d="
M1340.872070,466.721375 
	C1345.320557,446.054077 1349.710938,425.806519 1354.116333,405.490570 
	C1352.276123,404.484253 1350.658569,403.599640 1349.040894,402.715027 
	C1349.096924,402.170258 1349.153076,401.625519 1349.209106,401.080780 
	C1355.315674,400.689819 1361.422241,400.298889 1368.646729,399.836365 
	C1365.917969,412.413391 1363.380249,424.109619 1360.604614,436.902283 
	C1363.080078,436.307892 1364.574219,436.029572 1366.019165,435.589569 
	C1378.644775,431.745056 1388.472290,439.098114 1388.312866,452.294312 
	C1388.092041,470.572327 1373.494385,486.537018 1357.270264,486.244263 
	C1345.456177,486.031036 1339.284790,478.866913 1340.872070,466.721375 
M1373.680908,458.084900 
	C1374.369507,454.321930 1375.154907,450.573334 1375.716797,446.791504 
	C1376.179077,443.681213 1377.013794,440.070312 1373.241943,438.489075 
	C1369.260376,436.819977 1365.478760,438.105469 1363.110962,441.631714 
	C1356.067993,452.120453 1352.066162,463.625244 1353.257080,476.414764 
	C1353.419678,478.161499 1355.390869,480.464050 1357.092773,481.205872 
	C1361.959595,483.327118 1365.167114,482.170105 1367.210571,477.242462 
	C1369.680176,471.287537 1371.373535,465.010742 1373.680908,458.084900 
z"/>
<path fill="#F49A42" opacity="1.000000" stroke="none" 
	d="
M1698.955322,326.902344 
	C1705.553223,308.889282 1711.966797,291.223114 1718.611084,273.644073 
	C1719.373047,271.627869 1721.422607,270.098328 1722.875244,268.343140 
	C1724.332153,270.065308 1726.404053,271.556091 1727.152222,273.544830 
	C1736.112793,297.360748 1744.885254,321.247559 1753.686035,345.123474 
	C1755.671143,350.509216 1755.943359,357.422821 1765.333862,356.082947 
	C1761.615601,359.104065 1739.531738,359.353485 1734.429565,356.449585 
	C1738.255371,356.039764 1740.996216,355.746185 1744.441040,355.377197 
	C1741.300049,346.709320 1738.422241,338.434723 1735.204468,330.294434 
	C1734.787842,329.240601 1732.628174,328.323853 1731.253662,328.291626 
	C1723.266724,328.104431 1715.268311,328.055237 1707.286011,328.323303 
	C1705.676392,328.377319 1703.217163,329.634460 1702.686646,330.954590 
	C1699.540161,338.783600 1696.846313,346.794617 1693.781738,355.354797 
	C1697.055420,355.685394 1699.750000,355.957550 1702.602173,356.245575 
	C1700.389526,359.017700 1686.193481,359.558990 1681.384521,357.276642 
	C1681.473999,356.977905 1681.587402,356.416229 1681.660767,356.421417 
	C1688.124756,356.877106 1689.845581,352.407745 1691.483154,347.427979 
	C1693.716064,340.638306 1696.367676,333.986267 1698.955322,326.902344 
M1729.562256,313.956909 
	C1726.299561,305.058075 1723.036987,296.159241 1719.774292,287.260406 
	C1719.360229,287.296570 1718.946167,287.332703 1718.531982,287.368866 
	C1714.142212,299.414124 1709.752319,311.459412 1705.217896,323.901215 
	C1714.832397,323.901215 1723.601807,323.901215 1733.010498,323.901215 
	C1731.859497,320.563416 1730.846924,317.626953 1729.562256,313.956909 
z"/>
<path fill="#F49940" opacity="1.000000" stroke="none" 
	d="
M953.889160,336.020905 
	C954.061890,337.262085 954.234558,338.503296 954.367554,340.416443 
	C954.572388,341.383484 954.816833,341.678589 955.061279,341.973694 
	C960.502014,353.043213 969.757202,357.065674 982.940063,354.090332 
	C993.787720,351.642029 999.891052,343.913788 999.975525,331.980286 
	C1000.103943,313.836487 999.846985,295.688416 1000.140747,277.548401 
	C1000.220886,272.598694 999.010498,270.291992 993.818909,271.075867 
	C993.125427,271.180603 992.347839,270.728607 991.440979,270.490173 
	C994.302368,267.542480 1010.226196,267.409790 1013.431519,270.045929 
	C1013.255859,270.297913 1013.109436,270.739899 1012.898621,270.773102 
	C1005.027832,272.012268 1005.027100,272.007202 1005.026245,280.323853 
	C1005.024597,296.970337 1005.072083,313.617004 1005.008057,330.263245 
	C1004.935913,348.997528 994.353333,359.720428 975.623718,359.993591 
	C971.985901,360.046692 968.258240,359.960236 964.712219,359.243988 
	C949.678284,356.207367 942.089722,346.939240 941.998047,331.548248 
	C941.882141,312.072571 941.949585,292.595856 941.804810,272.334869 
	C941.236023,270.978943 940.800415,270.407684 940.163879,269.573059 
	C945.653992,269.573059 950.576355,269.573059 955.927002,269.573059 
	C955.011292,270.750214 954.514771,271.388580 954.018188,272.026978 
	C953.974426,292.700287 953.930664,313.373566 953.711304,334.617859 
	C953.653503,335.466187 953.771362,335.743561 953.889160,336.020905 
z"/>
<path fill="#F49A41" opacity="1.000000" stroke="none" 
	d="
M1398.104492,344.018738 
	C1398.104614,344.018707 1398.270630,344.244507 1398.192871,344.757019 
	C1398.492920,345.855316 1398.870728,346.441132 1399.248535,347.026978 
	C1399.248535,347.026978 1399.353638,347.225189 1399.292969,347.635986 
	C1399.488159,348.364532 1399.743774,348.682251 1399.999390,349.000000 
	C1399.999390,349.000000 1400.000000,349.000000 1399.989502,349.347046 
	C1400.349609,350.467529 1400.720459,351.240936 1401.091187,352.014374 
	C1401.091187,352.014374 1401.260620,352.232910 1401.232178,352.666443 
	C1401.449097,353.396912 1401.694702,353.693848 1401.940186,353.990753 
	C1401.940186,353.990753 1402.146851,354.278900 1402.053345,354.880188 
	C1398.208130,356.176941 1394.456543,356.872375 1391.113159,357.492126 
	C1390.061646,354.882904 1389.475830,353.429474 1388.890137,351.976013 
	C1388.890137,351.976013 1388.715942,351.761902 1388.797119,351.259399 
	C1388.535889,350.162781 1388.193481,349.568695 1387.850952,348.974609 
	C1387.850952,348.974609 1387.694458,348.766815 1387.787354,348.268494 
	C1387.249023,346.512115 1386.617798,345.254089 1385.986572,343.996063 
	C1385.986694,343.996033 1385.809814,343.707275 1385.862061,343.187836 
	C1385.579956,342.106964 1385.245728,341.545532 1384.911377,340.984131 
	C1384.911377,340.984131 1384.736694,340.753265 1384.812500,340.251251 
	C1384.549072,339.177521 1384.209595,338.605804 1383.870117,338.034119 
	C1382.161133,328.540771 1375.847412,327.067047 1367.509521,328.081512 
	C1362.426025,328.699982 1357.198975,328.051453 1352.052124,328.299194 
	C1350.700562,328.364288 1348.635864,329.343262 1348.211182,330.420197 
	C1345.057495,338.416382 1342.234741,346.543121 1339.080933,355.256805 
	C1342.450928,355.657104 1345.081055,355.969513 1348.022217,356.318878 
	C1345.041260,359.201080 1330.522949,359.393860 1325.409180,356.152405 
	C1335.939697,357.369385 1335.842407,349.513000 1337.937744,343.887756 
	C1346.816040,320.052643 1355.457642,296.129425 1364.337646,272.295044 
	C1364.920654,270.730164 1366.580688,269.193481 1368.121948,268.526398 
	C1368.823730,268.222656 1371.136597,269.820343 1371.568237,270.982758 
	C1379.206299,291.549713 1386.666870,312.182678 1394.134766,333.543427 
	C1394.722656,335.522736 1395.341553,336.760010 1395.960327,337.997314 
	C1395.960327,337.997314 1396.136353,338.344238 1396.098877,338.870697 
	C1396.380493,339.930084 1396.699707,340.463043 1397.018921,340.996002 
	C1397.018921,340.996002 1396.997314,340.997681 1396.992554,341.337158 
	C1397.360107,342.457367 1397.732300,343.238037 1398.104492,344.018738 
M1354.163208,313.689667 
	C1353.056274,316.938812 1351.949341,320.187958 1350.698975,323.857910 
	C1360.124634,323.857910 1368.869873,323.857910 1378.381958,323.857910 
	C1373.783936,311.150543 1369.366699,298.943146 1364.520752,285.551056 
	C1360.852905,295.516998 1357.643555,304.236969 1354.163208,313.689667 
z"/>
<path fill="#F49A42" opacity="1.000000" stroke="none" 
	d="
M1110.368408,355.848083 
	C1125.636108,356.044495 1135.481201,349.587860 1138.096680,333.549438 
	C1138.573730,333.913055 1139.050659,334.276703 1139.527710,334.640350 
	C1139.527710,342.472443 1139.527710,350.304535 1139.527710,358.183777 
	C1138.884155,358.140289 1138.319824,358.203094 1138.278931,358.084869 
	C1136.600586,353.232635 1133.956909,353.382477 1129.717163,355.501434 
	C1104.379639,368.164581 1076.262329,353.383423 1072.176636,325.303040 
	C1069.886963,309.565613 1070.753906,294.231445 1081.153931,281.113556 
	C1087.856323,272.659607 1096.363892,267.445465 1107.784058,267.911469 
	C1116.070557,268.249573 1124.454102,267.228607 1132.028564,271.956940 
	C1134.537476,273.523132 1136.877563,273.411102 1137.255859,269.550995 
	C1137.330078,268.794708 1137.821533,268.079254 1138.120361,267.344879 
	C1138.598389,267.628906 1139.076416,267.912903 1139.554443,268.196930 
	C1139.554443,276.185516 1139.554443,284.174072 1139.554443,292.162659 
	C1139.191772,292.278259 1138.829224,292.393860 1138.466553,292.509430 
	C1137.980591,291.489075 1137.279907,290.516205 1137.041992,289.440918 
	C1134.810669,279.359436 1128.576172,273.589325 1118.473877,271.729034 
	C1107.421753,269.693787 1097.967285,272.502319 1091.947876,282.149841 
	C1088.600830,287.514313 1086.263428,293.844513 1084.926147,300.052887 
	C1082.592041,310.889221 1082.888794,321.965637 1086.042847,332.688965 
	C1089.603516,344.794586 1096.305664,353.970337 1110.368408,355.848083 
z"/>
<path fill="#F39A42" opacity="1.000000" stroke="none" 
	d="
M1224.536377,279.564453 
	C1215.319824,290.543396 1213.800537,303.475250 1214.513550,316.559204 
	C1214.931519,324.226288 1216.593628,332.160706 1219.424438,339.288452 
	C1224.669922,352.496796 1236.480347,358.037659 1250.262695,355.023529 
	C1258.919434,353.130341 1264.909424,348.202576 1267.287720,339.367157 
	C1267.747314,337.659454 1268.551758,336.044617 1269.197266,334.386993 
	C1269.605713,334.497192 1270.014160,334.607391 1270.422607,334.717590 
	C1270.422607,342.531921 1270.422607,350.346252 1270.422607,358.506226 
	C1269.327148,358.071259 1268.537720,357.957123 1268.494385,357.711273 
	C1267.559692,352.414429 1264.556519,353.446930 1261.240479,355.258148 
	C1251.535767,360.558685 1241.245361,361.710144 1230.788940,358.442688 
	C1213.118408,352.920868 1204.640381,339.659271 1202.560913,322.116364 
	C1200.618408,305.730133 1202.668213,290.045685 1215.072144,277.607513 
	C1221.392700,271.269562 1228.901489,267.554932 1238.290161,267.895294 
	C1246.925171,268.208344 1255.574585,267.393646 1263.478760,272.235321 
	C1267.674316,274.805237 1267.617310,270.340698 1268.691772,268.132202 
	C1271.356445,269.829376 1272.181030,284.902161 1269.940186,292.646301 
	C1260.082642,269.366791 1245.377319,263.639221 1224.536377,279.564453 
z"/>
<path fill="#282524" opacity="1.000000" stroke="none" 
	d="
M1564.600586,476.431702 
	C1566.918457,465.627991 1568.872314,455.165375 1571.416016,444.848175 
	C1572.509033,440.414703 1571.723145,438.549896 1567.026611,438.734161 
	C1565.993774,438.774689 1564.934937,438.155884 1562.929688,437.552124 
	C1570.371826,433.561096 1577.303955,434.645477 1584.145386,435.534363 
	C1584.769165,435.615356 1585.479248,437.583679 1585.553223,438.714539 
	C1585.651367,440.216827 1585.163696,441.757446 1584.705811,444.714783 
	C1588.284058,441.877625 1590.506592,439.646851 1593.144287,438.146118 
	C1596.248657,436.379944 1599.610229,434.450836 1603.043213,434.006317 
	C1609.980713,433.108063 1614.924438,437.825165 1613.978516,444.739471 
	C1612.720825,453.932892 1610.393433,462.976959 1608.656372,472.110016 
	C1608.251831,474.237000 1608.374390,476.464233 1608.235840,478.984589 
	C1616.054810,478.138397 1615.993896,470.195221 1620.574951,467.195862 
	C1621.004272,467.404266 1621.433716,467.612671 1621.863037,467.821075 
	C1621.461548,469.367676 1621.493774,471.262878 1620.581055,472.398529 
	C1617.212524,476.589722 1614.061646,481.293243 1609.767212,484.274902 
	C1607.234253,486.033569 1602.291016,485.998779 1599.174438,484.815002 
	C1595.258667,483.327545 1594.797363,478.699188 1595.479248,474.811066 
	C1596.913086,466.635071 1598.963379,458.564331 1600.293091,450.374420 
	C1600.778198,447.386200 1599.934937,444.182312 1599.697754,441.076782 
	C1596.752441,442.346954 1593.343140,443.048553 1590.953003,444.999054 
	C1584.938721,449.907043 1582.095215,456.911011 1580.111328,464.221863 
	C1578.851318,468.864777 1577.867065,473.582001 1576.723877,478.257263 
	C1575.294678,484.101746 1572.963135,485.582428 1566.854980,484.532288 
	C1565.728394,484.338623 1564.626099,484.003357 1563.157227,483.647400 
	C1563.615479,481.278748 1564.045532,479.055206 1564.600586,476.431702 
z"/>
<path fill="#282423" opacity="1.000000" stroke="none" 
	d="
M1029.779541,466.015411 
	C1030.223877,454.352570 1035.098389,445.492920 1043.969971,438.762207 
	C1052.596802,432.217102 1056.293945,432.188873 1066.032104,438.684998 
	C1069.651001,433.952911 1074.218384,434.183960 1079.480347,436.414459 
	C1076.580078,450.167542 1073.718262,463.737640 1070.714355,477.982422 
	C1078.545410,477.221313 1077.656372,468.521729 1084.113159,466.665741 
	C1081.797363,474.789612 1078.701172,481.552277 1071.215576,485.358368 
	C1067.803467,487.093292 1064.723999,486.363800 1062.295898,483.434937 
	C1061.053223,481.936035 1060.050781,480.237946 1058.653687,478.215759 
	C1057.475464,479.281708 1056.482300,480.057953 1055.632568,480.968170 
	C1048.484741,488.625916 1038.824097,488.100250 1033.535156,479.128418 
	C1031.367065,475.450684 1030.975464,470.725677 1029.779541,466.015411 
M1056.424683,438.645172 
	C1054.248413,439.818756 1050.576294,440.590820 1050.136230,442.230377 
	C1047.047974,453.736938 1044.293213,465.362000 1042.168945,477.082794 
	C1041.405273,481.295837 1045.276978,483.335754 1049.183838,481.364563 
	C1050.755493,480.571625 1052.294189,479.310181 1053.307617,477.879333 
	C1059.750122,468.782501 1062.785400,458.487122 1062.854980,447.440826 
	C1062.878296,443.748169 1062.179565,439.630493 1056.424683,438.645172 
z"/>
<path fill="#2A2726" opacity="1.000000" stroke="none" 
	d="
M1454.464233,509.574554 
	C1462.311523,503.607391 1466.339966,495.341949 1470.447388,487.166473 
	C1470.976440,486.113525 1471.032715,484.536285 1470.695923,483.380157 
	C1467.864380,473.658569 1464.929810,463.966217 1461.939819,454.291840 
	C1460.667358,450.174530 1459.188599,446.120941 1457.736938,441.841461 
	C1450.784912,442.993134 1452.353760,450.801025 1448.274658,453.957886 
	C1447.778809,453.638336 1447.308350,453.495117 1447.282837,453.295166 
	C1446.526855,447.367737 1454.407593,435.370209 1460.024170,434.109192 
	C1464.853516,433.024933 1468.301636,435.447906 1470.091309,439.572083 
	C1472.391968,444.873596 1474.031982,450.463959 1475.911499,455.945343 
	C1476.852539,458.689606 1477.693970,461.468079 1479.040283,465.664093 
	C1480.854736,462.391937 1481.998169,460.472504 1483.007202,458.484802 
	C1486.679321,451.250549 1490.174438,443.922577 1494.013428,436.778870 
	C1495.609009,433.809692 1498.709106,433.224792 1501.260864,435.215179 
	C1502.748657,436.375702 1504.154053,439.083282 1503.819336,440.734650 
	C1503.483398,442.392090 1500.843750,444.885132 1499.382935,444.774658 
	C1494.459351,444.402374 1492.500244,447.138153 1490.978027,450.915009 
	C1486.946655,460.917694 1483.553101,471.242859 1478.702759,480.831146 
	C1474.011719,490.104462 1468.226318,498.909790 1462.157959,507.373230 
	C1457.492554,513.880432 1450.447754,517.308960 1442.251221,516.832153 
	C1440.030151,516.702881 1437.309326,514.988892 1436.000488,513.157227 
	C1435.210205,512.051025 1436.079834,508.466400 1437.334839,507.558197 
	C1438.563843,506.668823 1441.537109,507.207672 1443.179199,508.128265 
	C1445.083618,509.195679 1446.371826,511.362213 1448.197144,513.344543 
	C1450.240479,512.134155 1452.209839,510.967560 1454.464233,509.574554 
z"/>
<path fill="#282423" opacity="1.000000" stroke="none" 
	d="
M1551.602295,463.399841 
	C1548.627075,473.498138 1542.320190,480.244110 1533.309814,484.457184 
	C1521.039795,490.194427 1507.973511,482.351562 1506.903809,468.849792 
	C1505.818604,455.154968 1510.743286,444.479095 1522.577271,437.261292 
	C1529.243408,433.195526 1536.233398,431.887390 1543.281372,436.179413 
	C1550.507812,440.580200 1553.439941,447.340057 1552.897217,455.640350 
	C1552.735474,458.114990 1552.145874,460.561646 1551.602295,463.399841 
M1519.598633,467.281067 
	C1519.318481,469.917358 1518.397949,472.694885 1518.939209,475.150085 
	C1519.474609,477.578705 1521.052734,480.909271 1522.970459,481.586243 
	C1524.929077,482.277649 1528.506714,480.881897 1530.199707,479.209534 
	C1532.444336,476.992157 1534.126587,473.789185 1535.027588,470.710388 
	C1537.260498,463.080292 1539.068726,455.313446 1540.727295,447.533295 
	C1541.482788,443.989807 1540.897217,440.410950 1536.892700,438.893036 
	C1532.150269,437.095367 1528.549072,438.414978 1526.870239,443.188171 
	C1524.185181,450.821228 1522.119507,458.672089 1519.598633,467.281067 
z"/>
<path fill="#F5973A" opacity="1.000000" stroke="none" 
	d="
M1517.255005,347.990936 
	C1517.321289,347.263123 1517.387695,346.535309 1517.846069,345.313293 
	C1518.206177,343.541565 1518.174316,342.264099 1518.142334,340.986603 
	C1518.197388,340.233765 1518.252441,339.480957 1518.636719,338.188507 
	C1519.662354,337.275330 1520.358765,336.901764 1520.574951,336.785797 
	C1521.179565,341.738495 1521.752686,346.433807 1522.325928,351.129089 
	C1522.455811,351.846558 1522.585693,352.564026 1522.473022,353.923218 
	C1522.639404,357.807983 1519.982300,357.903442 1517.997192,358.688690 
	C1506.984863,358.527985 1495.972412,358.367279 1484.213867,357.867126 
	C1480.111450,357.237701 1476.755249,356.947723 1473.545898,356.670441 
	C1473.545898,327.316956 1473.545898,298.498444 1473.545898,269.015961 
	C1477.344116,270.282532 1482.026367,266.430542 1484.914307,271.877899 
	C1484.713013,273.683838 1484.339600,275.489471 1484.336548,277.295746 
	C1484.296143,300.443085 1484.294434,323.590576 1484.329590,346.737915 
	C1484.333008,349.031372 1484.644287,351.324371 1484.854858,354.191559 
	C1494.479858,354.191559 1503.766602,354.191559 1513.704712,354.400452 
	C1514.810059,354.307404 1515.264038,354.005402 1515.717896,353.703400 
	C1515.717896,353.703400 1515.956177,353.791595 1516.166504,353.673615 
	C1516.669556,351.700745 1516.962280,349.845856 1517.255005,347.990936 
z"/>
<path fill="#F69637" opacity="1.000000" stroke="none" 
	d="
M1619.875122,272.428375 
	C1613.510864,272.544952 1607.146484,272.661530 1599.930542,272.970337 
	C1598.758301,273.706482 1598.161377,274.248627 1598.158081,274.794495 
	C1598.088745,286.029236 1598.048706,297.264740 1598.147339,308.498810 
	C1598.154907,309.363037 1599.234253,310.217834 1599.815430,311.076996 
	C1608.914185,311.147064 1618.012817,311.217133 1627.795776,311.395325 
	C1628.786377,310.335907 1629.092773,309.168365 1629.399292,308.000824 
	C1629.421143,307.286530 1629.442871,306.572205 1629.902832,305.458984 
	C1630.979370,305.042145 1631.617676,305.024261 1632.256104,305.006378 
	C1632.275146,310.357513 1632.294189,315.708679 1631.964478,321.536591 
	C1630.984619,321.948853 1630.353638,321.884338 1629.722656,321.819855 
	C1629.558960,320.807037 1629.395142,319.794250 1629.444336,318.200256 
	C1629.202026,317.027405 1628.746826,316.435791 1628.291626,315.844177 
	C1628.291626,315.844177 1628.170654,315.855682 1628.002075,315.435150 
	C1627.279663,314.713348 1626.728027,314.154541 1626.171509,314.149597 
	C1618.281372,314.079376 1610.389893,314.030823 1602.501099,314.146179 
	C1601.626831,314.158966 1600.767944,315.210388 1599.901855,315.780090 
	C1599.901855,315.780090 1599.895386,315.895172 1599.467529,316.028015 
	C1598.712524,317.883331 1598.114136,319.603882 1598.101807,321.328613 
	C1598.018188,333.062012 1598.057983,344.796295 1598.057983,356.755127 
	C1595.081543,356.755127 1591.845581,356.755127 1588.649414,356.755127 
	C1588.649414,327.758820 1588.649414,299.073547 1588.649414,269.937286 
	C1600.313721,269.937286 1611.774292,269.993744 1623.233154,269.873535 
	C1624.863770,269.856415 1626.485596,268.981995 1628.111450,268.504395 
	C1629.788574,268.391815 1631.465820,268.279236 1633.839600,268.408508 
	C1635.949463,268.800781 1637.362793,268.951202 1638.776123,269.101624 
	C1638.757568,269.505219 1638.738892,269.908813 1638.280273,270.772766 
	C1637.568726,275.825500 1637.461548,280.437042 1636.930664,284.999268 
	C1636.759399,286.470398 1635.473145,287.811768 1634.697021,289.212494 
	C1634.512451,288.671661 1634.327759,288.130829 1634.370361,287.072693 
	C1634.294800,285.324951 1633.991821,284.094513 1633.688843,282.864105 
	C1633.559204,282.456726 1633.429443,282.049316 1633.520752,281.026917 
	C1632.957153,277.729401 1632.772095,273.227203 1631.267334,272.731598 
	C1627.811523,271.593353 1623.712891,272.407013 1619.875122,272.428375 
z"/>
<path fill="#2A2726" opacity="1.000000" stroke="none" 
	d="
M1412.497559,482.076294 
	C1423.281372,483.336700 1427.878418,475.363251 1433.572266,468.249023 
	C1433.581909,475.456451 1427.876709,482.343353 1420.321411,485.127045 
	C1413.263794,487.727386 1405.692139,485.844299 1400.981201,479.933868 
	C1394.952515,472.370087 1394.106445,463.832642 1397.609375,455.028564 
	C1401.335693,445.663177 1407.935669,438.782227 1417.394409,435.073700 
	C1425.829102,431.766632 1433.942627,434.945343 1437.123901,442.406189 
	C1439.859131,448.821075 1435.731079,457.982758 1428.096313,461.156769 
	C1424.333252,462.721191 1420.121338,463.497070 1416.038940,463.922699 
	C1411.788208,464.365875 1409.287109,465.944183 1408.656860,470.357422 
	C1408.018677,474.825806 1406.526611,479.401428 1412.497559,482.076294 
M1422.605469,438.574219 
	C1420.968384,439.193481 1418.636108,439.329865 1417.813110,440.514618 
	C1414.007812,445.992493 1411.971680,452.101044 1412.520142,458.853149 
	C1421.951538,460.137604 1429.903198,452.118073 1428.554199,443.314209 
	C1428.100708,440.354156 1426.860718,438.333527 1422.605469,438.574219 
z"/>
<path fill="#292625" opacity="1.000000" stroke="none" 
	d="
M1131.292480,455.390320 
	C1135.734497,445.355011 1142.167725,437.807983 1152.569702,434.503479 
	C1159.294678,432.367065 1166.518799,434.950043 1169.732300,440.258636 
	C1172.896484,445.485870 1171.920654,453.102234 1166.752808,457.525238 
	C1163.956909,459.918274 1160.256836,461.350037 1156.802368,462.838928 
	C1155.025391,463.604797 1152.897095,463.573792 1150.920532,463.854004 
	C1144.173218,464.810455 1140.552612,470.164917 1142.075684,476.965363 
	C1143.116455,481.612518 1147.782227,483.805115 1153.225952,481.527985 
	C1156.026367,480.356598 1158.513794,478.149445 1160.755005,476.005188 
	C1163.235962,473.631348 1165.274414,470.794739 1167.815796,467.793121 
	C1166.332764,478.772064 1155.675781,487.275543 1145.505249,486.103394 
	C1136.181030,485.028778 1128.185303,473.932343 1129.385132,463.509583 
	C1129.686646,460.890289 1130.540405,458.334564 1131.292480,455.390320 
M1161.595215,441.420288 
	C1159.307495,437.230286 1156.416138,437.687469 1153.056030,440.148987 
	C1147.728394,444.051910 1145.145020,451.773193 1146.985596,458.787659 
	C1157.041138,459.569946 1162.664551,453.311096 1161.595215,441.420288 
z"/>
<path fill="#2A2625" opacity="1.000000" stroke="none" 
	d="
M938.140442,469.185852 
	C935.873291,480.069244 924.605286,488.111572 914.686279,485.925812 
	C904.505737,483.682434 897.666382,471.284790 900.410095,459.715668 
	C903.129700,448.248260 910.316284,440.264709 920.755066,435.287537 
	C928.393799,431.645386 937.493469,434.596497 940.680969,441.241180 
	C943.995605,448.150665 940.529419,457.325409 932.636230,460.783691 
	C928.618347,462.544037 924.036682,463.077606 919.667603,463.954895 
	C916.869141,464.516815 914.284912,464.638794 913.469666,468.375916 
	C912.546814,472.606628 910.093689,477.308472 914.213379,480.372955 
	C916.455566,482.040863 921.508179,482.506500 923.744995,481.082489 
	C928.779053,477.877655 932.848328,473.157471 937.689941,469.071411 
	C938.069702,469.088867 938.140442,469.185852 938.140442,469.185852 
M929.027527,438.216614 
	C920.523010,439.141327 916.132874,446.655182 917.122803,458.887939 
	C922.253845,459.331726 927.149414,459.170898 929.763733,453.651459 
	C932.738647,447.370422 934.353638,442.097015 929.027527,438.216614 
z"/>
<path fill="#292625" opacity="1.000000" stroke="none" 
	d="
M982.763550,459.310486 
	C989.115112,468.710968 986.127808,479.022614 975.645020,483.770081 
	C967.860718,487.295410 959.837280,487.862061 952.274536,483.083679 
	C945.400513,478.740479 945.535889,473.837677 953.493469,468.549408 
	C954.351562,471.356232 955.765381,473.820892 955.684509,476.235443 
	C955.570374,479.642578 957.012878,481.052734 959.896851,481.845093 
	C964.849915,483.205963 969.418091,482.655701 973.532532,479.371002 
	C977.606262,476.118805 977.801025,473.530304 973.761108,470.046570 
	C971.774597,468.333557 969.318115,467.169098 967.090881,465.730774 
	C965.138916,464.470123 963.099426,463.311829 961.292542,461.865967 
	C956.707458,458.197052 952.867004,453.836639 954.171265,447.486938 
	C955.472107,441.153351 959.889465,437.105377 965.872314,434.937683 
	C971.795471,432.791626 977.697327,433.380219 983.287354,436.103241 
	C986.572998,437.703766 988.582397,440.556305 987.157166,444.236694 
	C986.532410,445.850006 984.248657,447.929504 982.861389,447.828583 
	C981.460754,447.726715 979.963867,445.337738 979.038940,443.658844 
	C978.482117,442.648041 978.936523,441.080109 978.936523,439.600525 
	C974.898315,437.712860 971.030029,436.904694 967.122131,439.594391 
	C962.649048,442.673157 962.661682,445.789124 967.234863,448.877594 
	C972.307739,452.303497 977.436646,455.646393 982.763550,459.310486 
z"/>
<path fill="#282524" opacity="1.000000" stroke="none" 
	d="
M1116.325439,431.917877 
	C1118.149292,433.771790 1119.982666,435.197723 1122.088623,436.835571 
	C1121.577026,437.304718 1121.030884,438.237457 1120.491821,438.233337 
	C1114.911133,438.190918 1114.013184,442.103455 1113.126465,446.372528 
	C1110.935425,456.919067 1108.545166,467.424225 1106.234985,477.946014 
	C1106.703491,478.354156 1107.171997,478.762268 1107.640625,479.170410 
	C1109.757080,477.535583 1112.140991,476.145142 1113.917847,474.200134 
	C1115.859985,472.074158 1117.240601,469.435120 1119.125122,466.634521 
	C1121.831543,474.051941 1112.519165,485.665741 1104.984253,486.180359 
	C1097.620972,486.683289 1093.069580,481.714935 1094.465698,473.582184 
	C1095.927979,465.064972 1097.940796,456.642639 1099.690918,448.174286 
	C1100.645264,443.556946 1103.282471,438.216553 1093.896729,437.853241 
	C1094.222290,437.399994 1094.547729,436.946747 1094.873169,436.493500 
	C1096.175293,435.991150 1097.589233,435.668457 1098.752686,434.943512 
	C1100.416748,433.906586 1102.928345,432.823090 1103.287109,431.329376 
	C1105.392456,422.563446 1105.313110,423.680420 1117.262329,422.354645 
	C1116.939087,425.539703 1116.637085,428.514832 1116.325439,431.917877 
z"/>
<path fill="#282524" opacity="1.000000" stroke="none" 
	d="
M1011.062927,456.244690 
	C1009.521851,463.908356 1008.042114,471.156067 1006.500610,478.706573 
	C1014.871155,478.590240 1015.200073,470.691498 1019.570129,466.990906 
	C1020.981995,475.603333 1013.206604,485.571411 1004.869507,486.173828 
	C998.352661,486.644684 994.200867,482.850006 994.757812,475.712219 
	C995.258362,469.297760 996.912476,462.968750 998.135193,456.616943 
	C998.825500,453.030792 999.539551,449.439270 1000.483948,445.914764 
	C1001.493713,442.146393 1001.928162,438.915863 996.672485,438.352234 
	C996.163269,438.297607 995.727356,437.560120 995.316040,437.192078 
	C995.513062,436.694305 995.590393,436.190674 995.738647,436.168823 
	C1001.683044,435.292847 1004.270874,431.917542 1005.755432,426.010223 
	C1006.240479,424.080505 1012.485779,423.598480 1016.096680,422.454407 
	C1016.457031,424.550903 1017.639587,426.934967 1017.025574,428.690735 
	C1015.077332,434.261780 1019.672852,434.718201 1022.812988,436.291931 
	C1022.399658,437.097534 1022.203796,437.867065 1021.969971,437.878784 
	C1014.095825,438.273834 1013.684814,444.420349 1012.519409,450.013977 
	C1012.113037,451.964447 1011.592712,453.891144 1011.062927,456.244690 
z"/>
<path fill="#F79636" opacity="1.000000" stroke="none" 
	d="
M878.490356,356.101929 
	C878.588318,356.496063 878.686218,356.890228 878.396973,357.610657 
	C876.675598,358.187988 875.341431,358.438995 874.007202,358.690002 
	C873.270203,358.669220 872.533142,358.648407 871.256531,358.182312 
	C859.612915,357.505432 848.509094,357.261719 837.404663,357.050568 
	C834.517700,356.995667 831.628723,357.042297 829.348267,357.042297 
	C829.348267,327.732727 829.348267,299.176422 829.348267,270.438141 
	C832.896545,270.438141 836.206116,270.438141 839.575806,270.438141 
	C839.361023,272.391846 839.059509,273.865234 839.057800,275.338989 
	C839.028931,300.335724 839.014709,325.332611 839.102783,350.329041 
	C839.107239,351.601074 840.063416,352.869751 840.576538,354.139954 
	C840.803284,354.167267 841.030090,354.194611 841.740601,354.662445 
	C851.018372,355.268188 859.812195,355.476685 868.606873,355.524475 
	C869.392029,355.528748 870.182861,354.489807 870.971008,353.935364 
	C870.971008,353.935364 870.990173,354.001831 871.346802,353.943115 
	C872.791992,349.397125 873.738220,344.867828 875.044739,340.444946 
	C875.513367,338.858551 876.850891,337.528839 877.791870,336.081970 
	C877.837158,336.507843 877.882446,336.933685 877.620972,337.997894 
	C877.216064,342.054535 876.910217,345.483826 877.090149,348.887421 
	C877.218201,351.310150 878.000183,353.698334 878.490356,356.101929 
z"/>
<path fill="#EFAA65" opacity="1.000000" stroke="none" 
	d="
M840.585510,353.660583 
	C840.063416,352.869751 839.107239,351.601074 839.102783,350.329041 
	C839.014709,325.332611 839.028931,300.335724 839.057800,275.338989 
	C839.059509,273.865234 839.361023,272.391846 839.575806,270.438141 
	C836.206116,270.438141 832.896545,270.438141 829.348267,270.438141 
	C829.348267,299.176422 829.348267,327.732727 829.348267,357.042297 
	C831.628723,357.042297 834.517700,356.995667 837.404663,357.050568 
	C848.509094,357.261719 859.612915,357.505432 870.910645,358.047974 
	C854.640137,358.461273 838.175842,358.575714 821.711365,358.624542 
	C821.004761,358.626617 820.296326,358.023010 819.446045,356.507812 
	C820.931458,356.130920 822.422363,355.423096 823.901062,355.447845 
	C826.753967,355.495605 828.162964,354.709320 828.152344,351.517090 
	C828.068054,326.206085 828.064270,300.894592 828.151245,275.583618 
	C828.161865,272.491150 827.011475,271.416473 824.041992,271.567932 
	C822.566040,271.643280 821.062439,271.177460 819.065979,270.881531 
	C821.996704,267.661621 844.493835,267.143433 849.795471,270.068604 
	C847.907043,270.746948 846.661072,271.647339 845.528809,271.521942 
	C840.906067,271.010010 840.484436,273.534332 840.502136,277.247559 
	C840.622864,302.558350 840.582703,327.869934 840.585510,353.660583 
z"/>
<path fill="#F2AF6E" opacity="1.000000" stroke="none" 
	d="
M1627.652588,268.367615 
	C1626.485596,268.981995 1624.863770,269.856415 1623.233154,269.873535 
	C1611.774292,269.993744 1600.313721,269.937286 1588.649414,269.937286 
	C1588.649414,299.073547 1588.649414,327.758820 1588.649414,356.755127 
	C1591.845581,356.755127 1595.081543,356.755127 1598.057983,356.755127 
	C1598.057983,344.796295 1598.018188,333.062012 1598.101807,321.328613 
	C1598.114136,319.603882 1598.712524,317.883331 1599.410156,316.031494 
	C1599.798462,327.064911 1600.067627,338.235504 1599.720337,349.386932 
	C1599.564941,354.378113 1601.323120,355.975922 1605.998901,355.368652 
	C1607.800293,355.134766 1609.690063,355.151978 1611.479004,355.436157 
	C1612.345947,355.573883 1613.073120,356.591431 1613.863647,357.210632 
	C1613.122925,357.714691 1612.386230,358.650635 1611.640991,358.657654 
	C1601.478027,358.753204 1591.313599,358.752808 1581.150879,358.647552 
	C1580.452148,358.640289 1579.764038,357.613007 1579.071045,357.060089 
	C1579.748169,356.494751 1580.510620,355.363068 1581.089355,355.450287 
	C1588.110229,356.508636 1587.347656,351.868622 1587.333618,347.407379 
	C1587.259766,323.913696 1587.241211,300.419312 1587.360596,276.925995 
	C1587.379150,273.270660 1586.732788,271.142334 1582.452759,271.553558 
	C1581.394531,271.655212 1580.206299,270.404175 1579.077881,269.774933 
	C1580.288086,269.229340 1581.495972,268.215790 1582.708984,268.209381 
	C1597.536743,268.130768 1612.365356,268.199982 1627.652588,268.367615 
z"/>
<path fill="#F1B06F" opacity="1.000000" stroke="none" 
	d="
M1485.349731,271.842834 
	C1482.026367,266.430542 1477.344116,270.282532 1473.545898,269.015961 
	C1473.545898,298.498444 1473.545898,327.316956 1473.545898,356.670441 
	C1476.755249,356.947723 1480.111450,357.237701 1483.748047,357.831909 
	C1478.073486,358.331390 1472.119141,358.582214 1466.162720,358.646332 
	C1465.475586,358.653717 1464.777344,357.622131 1464.084106,357.072266 
	C1464.755493,356.502258 1465.512939,355.362366 1466.085083,355.448914 
	C1473.117310,356.512543 1472.329102,351.858154 1472.315186,347.407257 
	C1472.242798,324.076202 1472.196777,300.744202 1472.364746,277.414124 
	C1472.394409,273.291595 1471.648438,271.003418 1466.941162,271.557831 
	C1466.080811,271.659180 1465.058716,270.389343 1464.111328,269.752441 
	C1464.991089,269.216217 1465.864014,268.227966 1466.751709,268.214478 
	C1474.749146,268.092804 1482.749634,268.101410 1490.747803,268.195770 
	C1491.680786,268.206787 1492.604736,268.968750 1493.532837,269.382568 
	C1493.513672,269.915771 1493.494507,270.449005 1493.475342,270.982208 
	C1490.911865,271.257416 1488.348511,271.532593 1485.349731,271.842834 
z"/>
<path fill="#E99E54" opacity="1.000000" stroke="none" 
	d="
M1388.897339,352.399048 
	C1389.475830,353.429474 1390.061646,354.882904 1391.113159,357.492126 
	C1394.456543,356.872375 1398.208130,356.176941 1402.070190,355.056732 
	C1404.757812,355.276703 1407.334961,355.921478 1410.185181,356.634521 
	C1407.046265,359.202820 1384.571899,359.410034 1379.474121,356.504517 
	C1382.352417,356.184784 1384.114258,355.845154 1385.878906,355.830139 
	C1387.994995,355.812195 1389.577515,355.525299 1388.897339,352.399048 
z"/>
<path fill="#F2AF6E" opacity="1.000000" stroke="none" 
	d="
M1599.844238,310.603333 
	C1599.234253,310.217834 1598.154907,309.363037 1598.147339,308.498810 
	C1598.048706,297.264740 1598.088745,286.029236 1598.158081,274.794495 
	C1598.161377,274.248627 1598.758301,273.706482 1599.456543,273.047974 
	C1599.847290,285.332153 1599.860107,297.730896 1599.844238,310.603333 
z"/>
<path fill="#F1B06F" opacity="1.000000" stroke="none" 
	d="
M954.442383,271.945007 
	C954.514771,271.388580 955.011292,270.750214 955.927002,269.573059 
	C950.576355,269.573059 945.653992,269.573059 940.163879,269.573059 
	C940.800415,270.407684 941.236023,270.978943 941.788025,271.879639 
	C938.929565,271.716492 935.954651,271.223846 932.979797,270.731171 
	C937.215820,267.226135 959.702209,267.563080 963.481140,270.883667 
	C960.023682,271.276733 957.445129,271.569885 954.442383,271.945007 
z"/>
<path fill="#EFAA65" opacity="1.000000" stroke="none" 
	d="
M870.504150,353.933594 
	C870.182861,354.489807 869.392029,355.528748 868.606873,355.524475 
	C859.812195,355.476685 851.018372,355.268188 842.070801,354.754089 
	C851.290527,354.247406 860.663940,354.089600 870.504150,353.933594 
z"/>
<path fill="#F2AF6E" opacity="1.000000" stroke="none" 
	d="
M1600.376465,315.820282 
	C1600.767944,315.210388 1601.626831,314.158966 1602.501099,314.146179 
	C1610.389893,314.030823 1618.281372,314.079376 1626.171509,314.149597 
	C1626.728027,314.154541 1627.279663,314.713348 1627.976196,315.380157 
	C1619.029663,315.783966 1609.940308,315.822205 1600.376465,315.820282 
z"/>
<path fill="#F1B06F" opacity="1.000000" stroke="none" 
	d="
M1522.493896,350.679443 
	C1521.752686,346.433807 1521.179565,341.738495 1520.574951,336.785797 
	C1520.358765,336.901764 1519.662354,337.275330 1518.752441,337.827881 
	C1519.167847,336.764893 1519.796875,335.522919 1520.425781,334.280884 
	C1521.172485,335.491150 1522.479126,336.663971 1522.562988,337.918579 
	C1522.836304,342.006256 1522.663330,346.123779 1522.493896,350.679443 
z"/>
<path fill="#EFAA65" opacity="1.000000" stroke="none" 
	d="
M877.811523,335.725403 
	C876.850891,337.528839 875.513367,338.858551 875.044739,340.444946 
	C873.738220,344.867828 872.791992,349.397125 871.323364,353.917603 
	C871.955017,348.425110 873.001770,342.905548 873.962280,337.370972 
	C874.391968,334.895020 874.916748,332.904449 877.811523,335.725403 
z"/>
<path fill="#F2AF6E" opacity="1.000000" stroke="none" 
	d="
M1620.309692,272.606812 
	C1623.712891,272.407013 1627.811523,271.593353 1631.267334,272.731598 
	C1632.772095,273.227203 1632.957153,277.729401 1633.527100,280.704071 
	C1633.026123,280.064423 1632.501709,279.134735 1632.493530,278.200500 
	C1632.454834,273.842285 1630.009033,272.623077 1626.116089,272.903961 
	C1624.337524,273.032257 1622.535645,272.834900 1620.309692,272.606812 
z"/>
<path fill="#F2AF6E" opacity="1.000000" stroke="none" 
	d="
M1634.827515,289.536316 
	C1635.473145,287.811768 1636.759399,286.470398 1636.930664,284.999268 
	C1637.461548,280.437042 1637.568726,275.825500 1638.171387,271.057190 
	C1638.364868,276.640991 1638.322510,282.406769 1637.954224,288.151672 
	C1637.913818,288.782593 1636.001953,289.293549 1634.827515,289.536316 
z"/>
<path fill="#EFAA65" opacity="1.000000" stroke="none" 
	d="
M878.604675,355.673401 
	C878.000183,353.698334 877.218201,351.310150 877.090149,348.887421 
	C876.910217,345.483826 877.216064,342.054535 877.575195,338.317261 
	C878.130493,343.747131 878.424744,349.495972 878.604675,355.673401 
z"/>
<path fill="#F2AF6E" opacity="1.000000" stroke="none" 
	d="
M1632.454590,304.722504 
	C1631.617676,305.024261 1630.979370,305.042145 1630.031250,305.122711 
	C1630.243164,303.573242 1630.764893,301.961090 1631.286621,300.348907 
	C1631.742065,301.712158 1632.197632,303.075378 1632.454590,304.722504 
z"/>
<path fill="#F2AF6E" opacity="1.000000" stroke="none" 
	d="
M1629.565063,322.166870 
	C1630.353638,321.884338 1630.984619,321.948853 1631.936768,322.002930 
	C1631.899658,323.472626 1631.541504,324.952789 1631.183350,326.432983 
	C1630.591431,325.126617 1629.999512,323.820251 1629.565063,322.166870 
z"/>
<path fill="#F1B06F" opacity="1.000000" stroke="none" 
	d="
M1518.343384,358.839935 
	C1519.982300,357.903442 1522.639404,357.807983 1522.432617,354.289185 
	C1523.028564,355.682617 1523.422363,357.351837 1524.009766,359.841278 
	C1521.710205,359.473816 1520.199951,359.232483 1518.343384,358.839935 
z"/>
<path fill="#EFAA65" opacity="1.000000" stroke="none" 
	d="
M874.331848,358.837524 
	C875.341431,358.438995 876.675598,358.187988 878.362000,357.915955 
	C877.361633,358.258301 876.009033,358.621674 874.331848,358.837524 
z"/>
<path fill="#F1B06F" opacity="1.000000" stroke="none" 
	d="
M1517.103149,348.335449 
	C1516.962280,349.845856 1516.669556,351.700745 1516.041260,353.652710 
	C1516.120850,352.059845 1516.536133,350.369904 1517.103149,348.335449 
z"/>
<path fill="#F2AF6E" opacity="1.000000" stroke="none" 
	d="
M1633.543457,283.195465 
	C1633.991821,284.094513 1634.294800,285.324951 1634.384033,286.782166 
	C1633.912842,285.848267 1633.655396,284.687561 1633.543457,283.195465 
z"/>
<path fill="#F1B06F" opacity="1.000000" stroke="none" 
	d="
M1517.990234,341.316162 
	C1518.174316,342.264099 1518.206177,343.541565 1517.991333,344.975647 
	C1517.775635,343.970062 1517.806763,342.807892 1517.990234,341.316162 
z"/>
<path fill="#F2AF6E" opacity="1.000000" stroke="none" 
	d="
M1629.230591,308.308350 
	C1629.092773,309.168365 1628.786377,310.335907 1628.266846,311.364746 
	C1628.389893,310.355957 1628.725830,309.485901 1629.230591,308.308350 
z"/>
<path fill="#E99E54" opacity="1.000000" stroke="none" 
	d="
M1385.973022,344.352753 
	C1386.617798,345.254089 1387.249023,346.512115 1387.836914,348.148224 
	C1387.182129,347.253998 1386.570801,345.981689 1385.973022,344.352753 
z"/>
<path fill="#E99E54" opacity="1.000000" stroke="none" 
	d="
M1395.979248,337.646729 
	C1395.341553,336.760010 1394.722656,335.522736 1394.143677,333.915344 
	C1394.788452,334.795532 1395.393311,336.045868 1395.979248,337.646729 
z"/>
<path fill="#F2AF6E" opacity="1.000000" stroke="none" 
	d="
M1638.683350,268.727264 
	C1637.362793,268.951202 1635.949463,268.800781 1634.261108,268.430420 
	C1635.520996,268.257996 1637.055786,268.305450 1638.683350,268.727264 
z"/>
<path fill="#F2AF6E" opacity="1.000000" stroke="none" 
	d="
M1628.371338,316.133545 
	C1628.746826,316.435791 1629.202026,317.027405 1629.478027,317.813232 
	C1629.016235,317.479218 1628.733765,316.951050 1628.371338,316.133545 
z"/>
<path fill="#E99E54" opacity="1.000000" stroke="none" 
	d="
M1398.112549,343.679535 
	C1397.732300,343.238037 1397.360107,342.457367 1396.999756,341.328308 
	C1397.381470,341.766785 1397.751099,342.553558 1398.112549,343.679535 
z"/>
<path fill="#E99E54" opacity="1.000000" stroke="none" 
	d="
M1401.095947,351.679779 
	C1400.720459,351.240936 1400.349609,350.467529 1399.989502,349.348389 
	C1400.366821,349.783508 1400.733765,350.564331 1401.095947,351.679779 
z"/>
<path fill="#E99E54" opacity="1.000000" stroke="none" 
	d="
M1383.873291,338.373230 
	C1384.209595,338.605804 1384.549072,339.177521 1384.845459,340.110291 
	C1384.493652,339.885010 1384.184937,339.298706 1383.873291,338.373230 
z"/>
<path fill="#E99E54" opacity="1.000000" stroke="none" 
	d="
M1397.028931,340.676941 
	C1396.699707,340.463043 1396.380493,339.930084 1396.090576,339.065002 
	C1396.426147,339.274536 1396.732544,339.816193 1397.028931,340.676941 
z"/>
<path fill="#F1B06F" opacity="1.000000" stroke="none" 
	d="
M1515.414673,353.738525 
	C1515.264038,354.005402 1514.810059,354.307404 1514.171509,354.424988 
	C1514.361694,354.084930 1514.736572,353.929291 1515.414673,353.738525 
z"/>
<path fill="#E99E54" opacity="1.000000" stroke="none" 
	d="
M1387.852295,349.324615 
	C1388.193481,349.568695 1388.535889,350.162781 1388.833496,351.126251 
	C1388.477051,350.888611 1388.165405,350.281616 1387.852295,349.324615 
z"/>
<path fill="#E99E54" opacity="1.000000" stroke="none" 
	d="
M1399.229736,346.673859 
	C1398.870728,346.441132 1398.492920,345.855316 1398.155518,344.892090 
	C1398.534302,345.116669 1398.872681,345.718719 1399.229736,346.673859 
z"/>
<path fill="#E99E54" opacity="1.000000" stroke="none" 
	d="
M1384.908569,341.317963 
	C1385.245728,341.545532 1385.579956,342.106964 1385.876831,343.019165 
	C1385.528320,342.797241 1385.217041,342.224548 1384.908569,341.317963 
z"/>
<path fill="#F1B06F" opacity="1.000000" stroke="none" 
	d="
M953.937378,335.756470 
	C953.771362,335.743561 953.653503,335.466187 953.680298,335.083984 
	C953.878418,335.150055 953.932007,335.321045 953.937378,335.756470 
z"/>
<path fill="#F1B06F" opacity="1.000000" stroke="none" 
	d="
M955.056763,341.693359 
	C954.816833,341.678589 954.572388,341.383484 954.387573,340.791687 
	C954.648865,340.800995 954.850525,341.107025 955.056763,341.693359 
z"/>
<path fill="#E99E54" opacity="1.000000" stroke="none" 
	d="
M1401.918945,353.697693 
	C1401.694702,353.693848 1401.449097,353.396912 1401.193115,352.799133 
	C1401.421021,352.800385 1401.659424,353.102539 1401.918945,353.697693 
z"/>
<path fill="#2A2625" opacity="1.000000" stroke="none" 
	d="
M938.032471,469.041748 
	C938.113220,468.759064 938.231079,468.523468 938.348999,468.287903 
	C938.453735,468.579681 938.558533,468.871429 938.401855,469.174500 
	C938.140442,469.185852 938.069702,469.088867 938.032471,469.041748 
z"/>
<path fill="#E99E54" opacity="1.000000" stroke="none" 
	d="
M1399.985107,348.687622 
	C1399.743774,348.682251 1399.488159,348.364532 1399.228882,347.728027 
	C1399.473877,347.731262 1399.722412,348.053284 1399.985107,348.687622 
z"/>
<path fill="#FEFEFE" opacity="1.000000" stroke="none" 
	d="
M326.740112,437.031921 
	C326.746735,473.006165 326.873779,508.486176 326.649139,543.963928 
	C326.609619,550.208618 325.837616,556.654968 324.128052,562.643982 
	C318.997955,580.616211 305.279205,589.584656 286.401428,588.087585 
	C269.132782,586.718201 255.981018,574.620728 254.078384,556.876160 
	C252.626083,543.331360 252.090637,529.628601 252.108810,515.997375 
	C252.158096,479.027924 252.494766,442.054993 253.174515,405.091858 
	C253.499298,387.430176 255.515686,369.909271 261.892242,353.177582 
	C266.031433,342.316620 271.548096,332.196747 280.043213,324.261902 
	C290.361755,314.623932 301.302032,305.647614 312.069672,296.498444 
	C313.809753,295.019928 315.955750,293.903839 318.079773,293.017029 
	C322.191772,291.300232 324.362610,292.410187 325.384155,296.803070 
	C325.904175,299.039246 325.974762,301.417023 325.976898,303.731049 
	C326.012634,342.541656 325.976898,381.352325 326.040314,420.162842 
	C326.049255,425.621246 326.496521,431.078949 326.740112,437.031921 
z"/>
<path fill="#FFFFFF" opacity="1.000000" stroke="none" 
	d="
M488.035522,436.000000 
	C488.056946,471.159027 488.034698,505.818146 488.127106,540.476990 
	C488.153748,550.460999 486.339691,559.955872 481.945740,568.965149 
	C474.836487,583.541870 462.734650,588.805481 447.184418,588.088257 
	C432.376373,587.405273 422.532196,579.726685 417.161194,566.402161 
	C415.219727,561.585815 414.072113,556.094482 414.061462,550.908081 
	C413.896667,470.592682 413.968170,390.276764 414.039032,309.961029 
	C414.042084,306.476227 414.435364,302.975739 414.871155,299.510742 
	C415.762207,292.425446 418.060364,291.192749 424.516907,294.639862 
	C441.570160,303.744385 455.702179,316.102356 466.192322,332.482117 
	C477.946381,350.835419 483.594452,371.274475 485.838135,392.614746 
	C487.332703,406.829712 487.354492,421.199493 488.035522,436.000000 
z"/>
<path fill="#FCFCFC" opacity="1.000000" stroke="none" 
	d="
M1243.747314,477.959900 
	C1234.910278,477.626160 1229.900879,473.151001 1227.343384,463.704315 
	C1224.893555,454.654602 1227.352173,447.128510 1234.325195,442.716553 
	C1236.118896,441.581573 1238.112671,440.762695 1240.171143,439.719208 
	C1245.200195,450.727539 1250.107300,461.468628 1255.487427,473.245544 
	C1251.872925,474.740570 1248.016724,476.335510 1243.747314,477.959900 
z"/>
<path fill="#FBFBFB" opacity="1.000000" stroke="none" 
	d="
M1263.361084,403.017883 
	C1269.464844,406.539093 1270.580078,409.810730 1268.159668,415.928711 
	C1265.540283,422.549713 1260.104126,425.671570 1253.021362,427.973053 
	C1251.648560,423.806366 1249.872437,419.862061 1249.086914,415.729431 
	C1247.465942,407.201385 1250.710327,403.390259 1259.485229,402.765137 
	C1260.630127,402.683594 1261.794312,402.873444 1263.361084,403.017883 
z"/>
<path fill="#FBFBFB" opacity="1.000000" stroke="none" 
	d="
M1655.630615,473.527344 
	C1653.068115,476.311340 1651.074341,479.394714 1648.249634,481.109650 
	C1643.887939,483.757690 1639.236328,480.735443 1640.280273,475.805725 
	C1642.509155,465.280914 1645.178101,454.812561 1648.390869,444.547729 
	C1650.116699,439.033417 1654.325439,437.010284 1658.218140,438.191711 
	C1662.495483,439.489838 1665.209106,444.723602 1663.615845,450.159210 
	C1661.336304,457.936829 1658.452637,465.537384 1655.630615,473.527344 
z"/>
<path fill="#FBFBFB" opacity="1.000000" stroke="none" 
	d="
M1373.541992,458.479065 
	C1371.373535,465.010742 1369.680176,471.287537 1367.210571,477.242462 
	C1365.167114,482.170105 1361.959595,483.327118 1357.092773,481.205872 
	C1355.390869,480.464050 1353.419678,478.161499 1353.257080,476.414764 
	C1352.066162,463.625244 1356.067993,452.120453 1363.110962,441.631714 
	C1365.478760,438.105469 1369.260376,436.819977 1373.241943,438.489075 
	C1377.013794,440.070312 1376.179077,443.681213 1375.716797,446.791504 
	C1375.154907,450.573334 1374.369507,454.321930 1373.541992,458.479065 
z"/>
<path fill="#FFFCF7" opacity="1.000000" stroke="none" 
	d="
M1729.698242,314.323700 
	C1730.846924,317.626953 1731.859497,320.563416 1733.010498,323.901215 
	C1723.601807,323.901215 1714.832397,323.901215 1705.217896,323.901215 
	C1709.752319,311.459412 1714.142212,299.414124 1718.531982,287.368866 
	C1718.946167,287.332703 1719.360229,287.296570 1719.774292,287.260406 
	C1723.036987,296.159241 1726.299561,305.058075 1729.698242,314.323700 
z"/>
<path fill="#FFFCF7" opacity="1.000000" stroke="none" 
	d="
M1354.298706,313.323303 
	C1357.643555,304.236969 1360.852905,295.516998 1364.520752,285.551056 
	C1369.366699,298.943146 1373.783936,311.150543 1378.381958,323.857910 
	C1368.869873,323.857910 1360.124634,323.857910 1350.698975,323.857910 
	C1351.949341,320.187958 1353.056274,316.938812 1354.298706,313.323303 
z"/>
<path fill="#FBFBFB" opacity="1.000000" stroke="none" 
	d="
M1056.847900,438.648315 
	C1062.179565,439.630493 1062.878296,443.748169 1062.854980,447.440826 
	C1062.785400,458.487122 1059.750122,468.782501 1053.307617,477.879333 
	C1052.294189,479.310181 1050.755493,480.571625 1049.183838,481.364563 
	C1045.276978,483.335754 1041.405273,481.295837 1042.168945,477.082794 
	C1044.293213,465.362000 1047.047974,453.736938 1050.136230,442.230377 
	C1050.576294,440.590820 1054.248413,439.818756 1056.847900,438.648315 
z"/>
<path fill="#FBFBFB" opacity="1.000000" stroke="none" 
	d="
M1519.695312,466.855988 
	C1522.119507,458.672089 1524.185181,450.821228 1526.870239,443.188171 
	C1528.549072,438.414978 1532.150269,437.095367 1536.892700,438.893036 
	C1540.897217,440.410950 1541.482788,443.989807 1540.727295,447.533295 
	C1539.068726,455.313446 1537.260498,463.080292 1535.027588,470.710388 
	C1534.126587,473.789185 1532.444336,476.992157 1530.199707,479.209534 
	C1528.506714,480.881897 1524.929077,482.277649 1522.970459,481.586243 
	C1521.052734,480.909271 1519.474609,477.578705 1518.939209,475.150085 
	C1518.397949,472.694885 1519.318481,469.917358 1519.695312,466.855988 
z"/>
<path fill="#F9F9F9" opacity="1.000000" stroke="none" 
	d="
M1423.029419,438.602325 
	C1426.860718,438.333527 1428.100708,440.354156 1428.554199,443.314209 
	C1429.903198,452.118073 1421.951538,460.137604 1412.520142,458.853149 
	C1411.971680,452.101044 1414.007812,445.992493 1417.813110,440.514618 
	C1418.636108,439.329865 1420.968384,439.193481 1423.029419,438.602325 
z"/>
<path fill="#F9F9F9" opacity="1.000000" stroke="none" 
	d="
M1161.760986,441.789307 
	C1162.664551,453.311096 1157.041138,459.569946 1146.985596,458.787659 
	C1145.145020,451.773193 1147.728394,444.051910 1153.056030,440.148987 
	C1156.416138,437.687469 1159.307495,437.230286 1161.760986,441.789307 
z"/>
<path fill="#F9F9F9" opacity="1.000000" stroke="none" 
	d="
M929.319458,438.463013 
	C934.353638,442.097015 932.738647,447.370422 929.763733,453.651459 
	C927.149414,459.170898 922.253845,459.331726 917.122803,458.887939 
	C916.132874,446.655182 920.523010,439.141327 929.319458,438.463013 
z"/>
</svg>
